<svg width="16" height="16" viewBox="0 0 16 16" fill="none" xmlns="http://www.w3.org/2000/svg">
<mask id="mask0_93_2701" style="mask-type:luminance" maskUnits="userSpaceOnUse" x="0" y="0" width="16" height="16">
<path d="M15.5342 2.89475L11.9167 0.278638C11.4524 -0.0605846 10.8527 -0.0605846 10.3884 0.278638L8.02831 1.97424L7.98955 1.95005H7.97024L5.6295 0.254321C5.16514 -0.0847736 4.56544 -0.0847736 4.10121 0.254321L0.483674 2.87056C0.174104 3.08856 0 3.50036 0 3.93648V8.90232C0 9.75024 0.367528 10.5253 0.947912 10.9371L7.98955 16L15.0506 10.9371C15.6309 10.5253 15.9985 9.72592 15.9985 8.87812V3.93648C16.0179 3.50036 15.8438 3.11288 15.5342 2.89475Z" fill="white"/>
</mask>
<g mask="url(#mask0_93_2701)">
<path d="M5.1877 16.3677L-0.712617 12.4434L-0.886719 4.01346L4.82018 -0.492188L10.7205 3.43204L10.8946 11.862L5.1877 16.3677Z" fill="#8957A3"/>
<path d="M12.6115 15.9758L6.73053 12.0758L6.53711 3.64591L12.2633 -0.859863L18.1636 3.06449L18.3377 11.4702L12.6115 15.9758Z" fill="#7662AB"/>
<path d="M8.43563 18.577L2.55475 14.677L2.36133 6.24698L8.08742 1.74133L13.9877 5.66556L14.1618 14.0714L8.43563 18.577Z" fill="#B261A6"/>
<path opacity="0.36" d="M17.3765 11.2127L7.95535 18.5768L7.78125 10.171L17.2024 2.80688L17.3765 11.2127Z" fill="#9B1C1F"/>
<path d="M-1.61517 12.0533L8.07678 18.4483L7.90268 10.0426L-1.80859 3.64746L-1.61517 12.0533Z" fill="#E077A8"/>
</g>
</svg>
