<svg width="29" height="29" viewBox="0 0 29 29" fill="none" xmlns="http://www.w3.org/2000/svg">
<rect width="29" height="29" rx="4" fill="#FBB5F8" fill-opacity="0.1"/>
<path d="M10.4844 17.4766H19.8594V10.4453H10.4844V17.4766ZM21.4414 7.69137L17.9257 4.17574C17.8203 4.05859 17.668 4 17.5156 4L16.3438 9.27344L21.6172 8.10156C21.6172 7.94922 21.5586 7.79688 21.4414 7.69137ZM18.6875 20.4062H9.89844V6.92969C9.89844 6.60582 9.63637 6.34375 9.3125 6.34375H6.96875C6.64488 6.34375 6.38281 6.60582 6.38281 6.92969V23.4141C6.38281 23.7379 6.64488 24 6.96875 24H18.6875C19.0114 24 19.2734 23.7379 19.2734 23.4141V20.9922C19.2734 20.6683 19.0114 20.4062 18.6875 20.4062Z" fill="url(#paint0_linear_1850_2258)"/>
<path d="M18.1016 8.10156C17.7734 8.10156 17.5156 7.84371 17.5156 7.51562V4H9.3125C8.98434 4 8.72656 4.25777 8.72656 4.58594V20.9922C8.72656 21.3203 8.98434 21.5781 9.3125 21.5781H21.0312C21.3594 21.5781 21.6172 21.3203 21.6172 20.9922V8.10156H18.1016ZM18.6875 16.8906H11.6562C11.3281 16.8906 11.0703 16.6328 11.0703 16.3047C11.0703 15.9765 11.3281 15.7188 11.6562 15.7188H18.6875C19.0157 15.7188 19.2734 15.9765 19.2734 16.3047C19.2734 16.6328 19.0157 16.8906 18.6875 16.8906ZM18.6875 14.5469H11.6562C11.3281 14.5469 11.0703 14.289 11.0703 13.9609C11.0703 13.6328 11.3281 13.375 11.6562 13.375H18.6875C19.0157 13.375 19.2734 13.6328 19.2734 13.9609C19.2734 14.289 19.0157 14.5469 18.6875 14.5469ZM18.6875 12.2031H11.6562C11.3281 12.2031 11.0703 11.9453 11.0703 11.6172C11.0703 11.289 11.3281 11.0312 11.6562 11.0312H18.6875C19.0157 11.0312 19.2734 11.289 19.2734 11.6172C19.2734 11.9453 19.0157 12.2031 18.6875 12.2031Z" fill="url(#paint1_linear_1850_2258)"/>
<defs>
<linearGradient id="paint0_linear_1850_2258" x1="14" y1="24" x2="14" y2="4" gradientUnits="userSpaceOnUse">
<stop stop-color="#FD3A84"/>
<stop offset="1" stop-color="#B036C8"/>
</linearGradient>
<linearGradient id="paint1_linear_1850_2258" x1="15.1719" y1="21.5781" x2="15.1719" y2="4" gradientUnits="userSpaceOnUse">
<stop stop-color="#FFC2CC"/>
<stop offset="1" stop-color="#FFF2F4"/>
</linearGradient>
</defs>
</svg>
