<svg width="29" height="29" viewBox="0 0 29 29" fill="none" xmlns="http://www.w3.org/2000/svg">
<rect width="29" height="29" rx="4" fill="#FBB5F8" fill-opacity="0.1"/>
<g clip-path="url(#clip0_1850_2292)">
<path d="M20.623 20.8457H8.37695V7.04102C8.37695 5.9156 9.29255 5 10.418 5H18.582C19.7074 5 20.623 5.9156 20.623 7.04102V20.8457Z" fill="url(#paint0_linear_1850_2292)"/>
<path d="M20.623 20.8457V21.959C20.623 23.0844 19.7074 24 18.582 24H10.418C9.29255 24 8.37695 23.0844 8.37695 21.959V20.8457H20.623ZM15.7988 7.22656C15.7988 6.91915 15.5496 6.66992 15.2422 6.66992H13.7578C13.4504 6.66992 13.2012 6.91915 13.2012 7.22656C13.2012 7.53398 13.4504 7.7832 13.7578 7.7832H15.2422C15.5496 7.7832 15.7988 7.53398 15.7988 7.22656ZM23.4434 11.7168H18.9902C18.6828 11.7168 18.4336 11.966 18.4336 12.2734V16.7266C18.4336 17.034 18.6828 17.2832 18.9902 17.2832H23.4434C23.7508 17.2832 24 17.034 24 16.7266V12.2734C24 11.966 23.7508 11.7168 23.4434 11.7168ZM16.7266 11.7168H12.2734C11.966 11.7168 11.7168 11.966 11.7168 12.2734V16.7266C11.7168 17.034 11.966 17.2832 12.2734 17.2832H16.7266C17.034 17.2832 17.2832 17.034 17.2832 16.7266V12.2734C17.2832 11.966 17.034 11.7168 16.7266 11.7168ZM10.0098 11.7168H5.55664C5.24923 11.7168 5 11.966 5 12.2734V16.7266C5 17.034 5.24923 17.2832 5.55664 17.2832H10.0098C10.3172 17.2832 10.5664 17.034 10.5664 16.7266V12.2734C10.5664 11.966 10.3172 11.7168 10.0098 11.7168Z" fill="url(#paint1_linear_1850_2292)"/>
</g>
<defs>
<linearGradient id="paint0_linear_1850_2292" x1="14.5" y1="20.8457" x2="14.5" y2="5" gradientUnits="userSpaceOnUse">
<stop stop-color="#FD3A84"/>
<stop offset="1" stop-color="#B036C8"/>
</linearGradient>
<linearGradient id="paint1_linear_1850_2292" x1="14.5" y1="24" x2="14.5" y2="6.66992" gradientUnits="userSpaceOnUse">
<stop stop-color="#FFC8D1"/>
<stop offset="1" stop-color="#FFF6F7"/>
</linearGradient>
<clipPath id="clip0_1850_2292">
<rect width="19" height="19" fill="white" transform="translate(5 5)"/>
</clipPath>
</defs>
</svg>
