<svg width="29" height="29" viewBox="0 0 29 29" fill="none" xmlns="http://www.w3.org/2000/svg">
<rect width="29" height="29" rx="4" fill="#FBB5F8" fill-opacity="0.1"/>
<g clip-path="url(#clip0_1850_2302)">
<path d="M20.0664 22.4414H8.93359C6.78507 22.4414 5.03711 20.6934 5.03711 18.5449C5.03711 16.8721 6.11035 15.4007 7.65451 14.8644C7.64137 14.7297 7.63477 14.5957 7.63477 14.4629C7.63477 12.1097 9.5492 10.1953 11.9023 10.1953C12.7788 10.1953 13.6207 10.4596 14.3372 10.9597C14.8302 11.3037 15.2403 11.7418 15.5476 12.2483C16.1142 11.8781 16.7759 11.6797 17.4688 11.6797C19.2597 11.6797 20.7431 13.0223 20.9654 14.7537C22.7037 15.1619 23.9629 16.7162 23.9629 18.5449C23.9629 20.6934 22.2149 22.4414 20.0664 22.4414Z" fill="url(#paint0_linear_1850_2302)"/>
<path d="M12.8301 19.2871V23.4434C12.8301 23.7508 12.5809 24 12.2734 24C11.966 24 11.7168 23.7508 11.7168 23.4434V19.585L11.0475 19.1388C10.7684 19.3483 10.4219 19.4727 10.0469 19.4727C9.12608 19.4727 8.37695 18.7235 8.37695 17.8027C8.37695 16.8819 9.12608 16.1328 10.0469 16.1328C10.9677 16.1328 11.7168 16.8819 11.7168 17.8027C11.7168 17.9442 11.6989 18.0816 11.6657 18.2129L12.5822 18.8239C12.737 18.9272 12.8301 19.101 12.8301 19.2871ZM16.1699 16.3184C16.1699 15.3976 15.4208 14.6484 14.5 14.6484C13.5792 14.6484 12.8301 15.3976 12.8301 16.3184C12.8301 17.044 13.2955 17.6628 13.9434 17.8925V23.4434C13.9434 23.7508 14.1926 24 14.5 24C14.8074 24 15.0566 23.7508 15.0566 23.4434V17.8925C15.7045 17.6628 16.1699 17.044 16.1699 16.3184ZM18.9531 16.1328C18.0323 16.1328 17.2832 16.8819 17.2832 17.8027C17.2832 17.9442 17.3011 18.0816 17.3343 18.2129L16.4178 18.8239C16.263 18.9272 16.1699 19.101 16.1699 19.2871V23.4434C16.1699 23.7508 16.4191 24 16.7266 24C17.034 24 17.2832 23.7508 17.2832 23.4434V19.585L17.9525 19.1388C18.2316 19.3483 18.5781 19.4727 18.9531 19.4727C19.8739 19.4727 20.623 18.7235 20.623 17.8027C20.623 16.8819 19.8739 16.1328 18.9531 16.1328ZM12.532 8.03941C12.3146 8.25679 12.3146 8.60922 12.532 8.82661C12.7494 9.04399 13.1018 9.04399 13.3192 8.82661C13.9703 8.17552 15.0297 8.17552 15.6808 8.82661C15.8982 9.04399 16.2506 9.04399 16.468 8.82661C16.6854 8.60922 16.6854 8.25679 16.468 8.03941C15.3829 6.95425 13.6171 6.95425 12.532 8.03941ZM10.9576 6.46497C10.7402 6.68235 10.7402 7.03478 10.9576 7.25217C11.175 7.46955 11.5274 7.46955 11.7448 7.25217C13.264 5.73295 15.736 5.73295 17.2552 7.25217C17.4726 7.46955 17.825 7.46955 18.0424 7.25217C18.2598 7.03478 18.2598 6.68235 18.0424 6.46497C16.0891 4.51168 12.9109 4.51168 10.9576 6.46497Z" fill="url(#paint1_linear_1850_2302)"/>
</g>
<defs>
<linearGradient id="paint0_linear_1850_2302" x1="14.5" y1="22.4414" x2="14.5" y2="10.1953" gradientUnits="userSpaceOnUse">
<stop stop-color="#FD3A84"/>
<stop offset="1" stop-color="#B036C8"/>
</linearGradient>
<linearGradient id="paint1_linear_1850_2302" x1="14.5" y1="24" x2="14.5" y2="5" gradientUnits="userSpaceOnUse">
<stop stop-color="#FFBEF9"/>
<stop offset="1" stop-color="#FFF1FF"/>
</linearGradient>
<clipPath id="clip0_1850_2302">
<rect width="19" height="19" fill="white" transform="translate(5 5)"/>
</clipPath>
</defs>
</svg>
