<svg width="29" height="29" viewBox="0 0 29 29" fill="none" xmlns="http://www.w3.org/2000/svg">
<rect width="29" height="29" rx="4" fill="#FBB5F8" fill-opacity="0.1"/>
<path d="M14.7517 9.51953L6 10.5156V21.5059C6 22.3326 6.66735 23 7.49414 23H21.5059C22.3327 23 23 22.3326 23 21.5059V10.5156L14.7517 9.51953ZM9.51953 9.51953C10.0691 9.51953 10.5156 9.07255 10.5156 8.52344C10.5156 7.97432 10.0691 7.52734 9.51953 7.52734C8.96992 7.52734 8.52344 7.97432 8.52344 8.52344C8.52344 9.07255 8.96992 9.51953 9.51953 9.51953ZM11.5117 9.51953C12.0613 9.51953 12.5078 9.07255 12.5078 8.52344C12.5078 7.97432 12.0613 7.52734 11.5117 7.52734C10.9621 7.52734 10.5156 7.97432 10.5156 8.52344C10.5156 9.07255 10.9621 9.51953 11.5117 9.51953ZM13.5039 9.51953C14.0535 9.51953 14.5 9.07255 14.5 8.52344C14.5 7.97432 14.0535 7.52734 13.5039 7.52734C12.9543 7.52734 12.5078 7.97432 12.5078 8.52344C12.5078 9.07255 12.9543 9.51953 13.5039 9.51953Z" fill="url(#paint0_linear_1850_2245)"/>
<path d="M21.5059 6H7.49414C6.66735 6 6 6.66738 6 7.49414V10.5156H23V7.49414C23 6.66738 22.3327 6 21.5059 6ZM9.51953 9.02148C9.24448 9.02148 9.02148 8.79849 9.02148 8.52344C9.02148 8.24832 9.24448 8.02539 9.51953 8.02539C9.79459 8.02539 10.0176 8.24832 10.0176 8.52344C10.0176 8.79849 9.79459 9.02148 9.51953 9.02148ZM11.5117 9.02148C11.2367 9.02148 11.0137 8.79849 11.0137 8.52344C11.0137 8.24832 11.2367 8.02539 11.5117 8.02539C11.7868 8.02539 12.0098 8.24832 12.0098 8.52344C12.0098 8.79849 11.7868 9.02148 11.5117 9.02148ZM13.5039 9.02148C13.2289 9.02148 13.0059 8.79849 13.0059 8.52344C13.0059 8.24832 13.2289 8.02539 13.5039 8.02539C13.779 8.02539 14.002 8.24832 14.002 8.52344C14.002 8.79849 13.779 9.02148 13.5039 9.02148ZM13.5039 12.0098H9.51953C9.24424 12.0098 9.02148 12.2325 9.02148 12.5078V15.4961C9.02148 15.7714 9.24424 15.9941 9.51953 15.9941H13.5039C13.7792 15.9941 14.002 15.7714 14.002 15.4961V12.5078C14.002 12.2325 13.7792 12.0098 13.5039 12.0098ZM19.4805 16.9902H15.4961C15.2208 16.9902 14.998 17.213 14.998 17.4883V20.4766C14.998 20.7518 15.2208 20.9746 15.4961 20.9746H19.4805C19.7558 20.9746 19.9785 20.7518 19.9785 20.4766V17.4883C19.9785 17.213 19.7558 16.9902 19.4805 16.9902ZM13.5039 19.9785H9.51953C9.24424 19.9785 9.02148 20.2013 9.02148 20.4766C9.02148 20.7518 9.24424 20.9746 9.51953 20.9746H13.5039C13.7792 20.9746 14.002 20.7518 14.002 20.4766C14.002 20.2013 13.7792 19.9785 13.5039 19.9785ZM13.5039 17.9863H9.51953C9.24424 17.9863 9.02148 18.2091 9.02148 18.4844C9.02148 18.7597 9.24424 18.9824 9.51953 18.9824H13.5039C13.7792 18.9824 14.002 18.7597 14.002 18.4844C14.002 18.2091 13.7792 17.9863 13.5039 17.9863ZM19.4805 14.998H15.4961C15.2208 14.998 14.998 15.2208 14.998 15.4961C14.998 15.7714 15.2208 15.9941 15.4961 15.9941H19.4805C19.7558 15.9941 19.9785 15.7714 19.9785 15.4961C19.9785 15.2208 19.7558 14.998 19.4805 14.998ZM19.4805 13.0059H15.4961C15.2208 13.0059 14.998 13.2286 14.998 13.5039C14.998 13.7792 15.2208 14.002 15.4961 14.002H19.4805C19.7558 14.002 19.9785 13.7792 19.9785 13.5039C19.9785 13.2286 19.7558 13.0059 19.4805 13.0059Z" fill="url(#paint1_linear_1850_2245)"/>
<defs>
<linearGradient id="paint0_linear_1850_2245" x1="14.5" y1="23" x2="14.5" y2="7.52734" gradientUnits="userSpaceOnUse">
<stop stop-color="#FD3A84"/>
<stop offset="1" stop-color="#B036C8"/>
</linearGradient>
<linearGradient id="paint1_linear_1850_2245" x1="14.5" y1="20.9746" x2="14.5" y2="6" gradientUnits="userSpaceOnUse">
<stop stop-color="#FFBEF9"/>
<stop offset="1" stop-color="#FFF1FF"/>
</linearGradient>
</defs>
</svg>
