<svg width="29" height="29" viewBox="0 0 29 29" fill="none" xmlns="http://www.w3.org/2000/svg">
<rect width="29" height="29" rx="4" fill="#FBB5F8" fill-opacity="0.1"/>
<g clip-path="url(#clip0_1850_2282)">
<path d="M23.455 20.0367L15.2519 23.9429C15.0925 24.0188 14.9075 24.0188 14.7481 23.9429L6.54495 20.0367C6.0996 19.8246 6.0996 19.1907 6.54495 18.9786L8.51019 18.0428L14.7481 21.0132C14.9075 21.0891 15.0925 21.0891 15.2519 21.0132L21.4898 18.0428L23.455 18.9786C23.9004 19.1907 23.9004 19.8246 23.455 20.0367ZM23.455 13.1193L19.8578 11.4062L19.1763 12.5866C19.0419 12.8194 18.7663 12.9309 18.5077 12.857L17.4542 12.5556C17.1937 12.7511 16.913 12.9135 16.6151 13.0413L16.3497 14.1029C16.2845 14.3637 16.0501 14.5467 15.7812 14.5467H14.2187C13.9499 14.5467 13.7155 14.3637 13.6503 14.1029L13.3849 13.0413C13.0869 12.9135 12.8062 12.7511 12.5458 12.5556L11.4923 12.857C11.2337 12.9308 10.9581 12.8195 10.8237 12.5866L10.1422 11.4062L6.54495 13.1193C6.0996 13.3313 6.0996 13.9652 6.54495 14.1773L14.7481 18.0836C14.9075 18.1595 15.0925 18.1595 15.2519 18.0836L23.455 14.1773C23.9004 13.9652 23.9004 13.3313 23.455 13.1193Z" fill="url(#paint0_linear_1850_2282)"/>
<path d="M23.455 17.1071L15.2519 21.0134C15.0925 21.0893 14.9075 21.0893 14.7481 21.0134L6.54495 17.1071C6.0996 16.895 6.0996 16.2612 6.54495 16.0491L8.51019 15.1132L14.7481 18.0837C14.9075 18.1596 15.0925 18.1596 15.2519 18.0837L21.4898 15.1132L23.455 16.0491C23.9004 16.2612 23.9004 16.895 23.455 17.1071ZM19.8574 10.5194C20.0507 10.7062 20.092 11.0007 19.9575 11.2336L19.1763 12.5867C19.0419 12.8195 18.7663 12.9311 18.5077 12.8571L17.4542 12.5557C17.1937 12.7513 16.913 12.9137 16.6151 13.0414L16.3497 14.103C16.2845 14.3639 16.0501 14.5469 15.7812 14.5469H14.2187C13.9499 14.5469 13.7155 14.3639 13.6503 14.103L13.3849 13.0414C13.0869 12.9137 12.8062 12.7513 12.5458 12.5557L11.4923 12.8571C11.2337 12.9309 10.9581 12.8196 10.8237 12.5867L10.0425 11.2336C9.90804 11.0007 9.94929 10.7062 10.1426 10.5194L10.9275 9.76035C10.9082 9.59836 10.8984 9.43551 10.8984 9.27344C10.8984 9.11137 10.9082 8.94852 10.9275 8.78648L10.1426 8.02746C9.94929 7.84059 9.908 7.54613 10.0425 7.31328L10.8237 5.96012C10.9581 5.7273 11.2337 5.61574 11.4923 5.68973L12.5458 5.99109C12.8062 5.79559 13.0869 5.63316 13.3849 5.50543L13.6503 4.44379C13.7155 4.18301 13.9499 4 14.2187 4H15.7812C16.0501 4 16.2845 4.18301 16.3497 4.44383L16.6151 5.50547C16.9131 5.6332 17.1937 5.79562 17.4542 5.99113L18.5077 5.68977C18.7663 5.61594 19.0419 5.7273 19.1763 5.96016L19.9575 7.31332C20.0919 7.54617 20.0507 7.84062 19.8574 8.0275L19.0725 8.78652C19.0918 8.94852 19.1016 9.11137 19.1016 9.27344C19.1016 9.43551 19.0918 9.59836 19.0725 9.76039L19.8574 10.5194ZM16.1719 9.27344C16.1719 8.62621 15.6472 8.10156 15 8.10156C14.3528 8.10156 13.8281 8.62621 13.8281 9.27344C13.8281 9.92066 14.3528 10.4453 15 10.4453C15.6472 10.4453 16.1719 9.92066 16.1719 9.27344Z" fill="url(#paint1_linear_1850_2282)"/>
</g>
<defs>
<linearGradient id="paint0_linear_1850_2282" x1="15" y1="23.9998" x2="15" y2="11.4062" gradientUnits="userSpaceOnUse">
<stop stop-color="#FFC8D1"/>
<stop offset="1" stop-color="#FFF6F7"/>
</linearGradient>
<linearGradient id="paint1_linear_1850_2282" x1="15" y1="21.0703" x2="15" y2="4" gradientUnits="userSpaceOnUse">
<stop stop-color="#FD3A84"/>
<stop offset="1" stop-color="#B036C8"/>
</linearGradient>
<clipPath id="clip0_1850_2282">
<rect width="20" height="20" fill="white" transform="translate(5 4)"/>
</clipPath>
</defs>
</svg>
