<svg width="29" height="29" viewBox="0 0 29 29" fill="none" xmlns="http://www.w3.org/2000/svg">
<rect width="29" height="29" rx="4" fill="#FBB5F8" fill-opacity="0.1"/>
<g clip-path="url(#clip0_1850_2268)">
<path d="M8.67188 7.58203V18.1288H21.328V7.58203H8.67188ZM18.6758 19.0557C18.6048 18.773 18.3133 18.5984 18.0362 18.6721C17.753 18.7426 17.582 19.0289 17.6521 19.3112L18.0156 20.7654H11.9842L12.3478 19.3112C12.4178 19.029 12.2469 18.7426 11.9636 18.6721C11.6773 18.5989 11.3941 18.773 11.324 19.0557L10.2694 23.3447C10.1993 23.6269 10.3703 23.9133 10.6535 23.9838C10.9356 24.0543 11.2226 23.8834 11.2931 23.6002L11.7205 21.8201H18.2793L18.7067 23.6002C18.7779 23.8861 19.0691 24.0548 19.3463 23.9838C19.6296 23.9133 19.8005 23.627 19.7305 23.3447L18.6758 19.0557Z" fill="url(#paint0_linear_1850_2268)"/>
<path d="M23.4724 6H6.52734C6.23199 6 6 6.23199 6 6.52734C6 6.82261 6.23199 7.05467 6.52734 7.05467H7.08983V18.1287C7.08983 19.0041 7.79642 19.7107 8.67184 19.7107H21.3279C22.2033 19.7107 22.9099 19.0041 22.9099 18.1287V7.05467H23.4724C23.7678 7.05467 23.9998 6.82261 23.9998 6.52734C23.9998 6.23199 23.7678 6 23.4724 6ZM10.4121 9.00578C10.2011 8.8054 10.2011 8.4679 10.4121 8.26751C10.6125 8.05661 10.9499 8.05661 11.1503 8.26751L11.8359 8.9425L12.5215 8.26751C12.7219 8.05661 13.0593 8.05661 13.2597 8.26751C13.4706 8.4679 13.4706 8.8054 13.2597 9.00578L12.5847 9.69136L13.2597 10.3769C13.4706 10.5772 13.4706 10.9147 13.2597 11.1151C13.07 11.3261 12.7112 11.3261 12.5214 11.1151L11.8359 10.4401L11.1503 11.1151C10.9606 11.3261 10.6019 11.3261 10.412 11.1151C10.2011 10.9147 10.2011 10.5772 10.412 10.3769L11.087 9.69136L10.4121 9.00578ZM14.4725 17.0741C14.4725 17.3693 14.2405 17.6014 13.9452 17.6014H9.72651C9.43117 17.6014 9.19918 17.3693 9.19918 17.0741V12.8554C9.19918 12.56 9.43117 12.328 9.72651 12.328H11.3085V13.91C11.3085 14.2053 11.5405 14.4374 11.8359 14.4374C12.1312 14.4374 12.3632 14.2053 12.3632 13.91V12.328H13.9452C14.2405 12.328 14.4725 12.56 14.4725 12.8554V17.0741ZM19.5877 16.7049C19.7986 16.9053 19.7986 17.2428 19.5877 17.4432C19.398 17.6541 19.0393 17.6542 18.8495 17.4432L18.1639 16.7682L17.4783 17.4432C17.2886 17.6541 16.9299 17.6542 16.7401 17.4432C16.5292 17.2428 16.5292 16.9053 16.7401 16.7049L17.4151 16.0194L16.7401 15.3338C16.5292 15.1334 16.5292 14.7959 16.7401 14.5956C16.9405 14.3847 17.2779 14.3847 17.4784 14.5956L18.1639 15.2705L18.8495 14.5956C19.0499 14.3847 19.3873 14.3847 19.5877 14.5956C19.7987 14.7959 19.7987 15.1334 19.5877 15.3338L18.9127 16.0194L19.5877 16.7049ZM20.6424 10.0605C20.4527 10.2714 20.0939 10.2715 19.9041 10.0605L19.7459 9.9128V10.746C19.7459 12.2015 18.5647 13.3827 17.1092 13.3827H16.0546C15.7592 13.3827 15.5272 13.1506 15.5272 12.8554C15.5272 12.56 15.7592 12.328 16.0546 12.328H17.1092C17.9846 12.328 18.6912 11.6214 18.6912 10.746V9.9128L18.533 10.0605C18.3326 10.2714 17.9952 10.2714 17.7948 10.0605C17.5838 9.86007 17.5838 9.52257 17.7948 9.32219L18.8494 8.26751C19.0207 8.05341 19.4307 8.07131 19.5877 8.26751L20.6423 9.32219C20.8533 9.52257 20.8533 9.86007 20.6424 10.0605Z" fill="url(#paint1_linear_1850_2268)"/>
</g>
<defs>
<linearGradient id="paint0_linear_1850_2268" x1="14.9999" y1="24" x2="14.9999" y2="7.58203" gradientUnits="userSpaceOnUse">
<stop stop-color="#FFC2CC"/>
<stop offset="1" stop-color="#FFF2F4"/>
</linearGradient>
<linearGradient id="paint1_linear_1850_2268" x1="14.9999" y1="19.7108" x2="14.9999" y2="6" gradientUnits="userSpaceOnUse">
<stop stop-color="#FD3A84"/>
<stop offset="1" stop-color="#B036C8"/>
</linearGradient>
<clipPath id="clip0_1850_2268">
<rect width="18" height="18" fill="white" transform="translate(6 6)"/>
</clipPath>
</defs>
</svg>
