<svg width="620" height="350" viewBox="0 0 620 350" fill="none" xmlns="http://www.w3.org/2000/svg">
<g clip-path="url(#clip0_3477_16814)">
<mask id="mask0_3477_16814" style="mask-type:alpha" maskUnits="userSpaceOnUse" x="0" y="0" width="620" height="350">
<path d="M0 0H620V350H0V0Z" fill="#0D0D0E"/>
</mask>
<g mask="url(#mask0_3477_16814)">
<path d="M0 20.6187C0 4.05012 13.4315 -9.38135 30 -9.38135H590C606.569 -9.38135 620 4.05011 620 20.6187V270.113C620 286.681 606.569 300.113 590 300.113H30C13.4315 300.113 0 286.681 0 270.113V20.6187Z" fill="#0D0D0E"/>
<rect width="620" height="351.611" transform="translate(0 -8.8833)" fill="#212123"/>
<mask id="mask1_3477_16814" style="mask-type:alpha" maskUnits="userSpaceOnUse" x="0" y="-9" width="620" height="352">
<rect y="-8.8833" width="620" height="351.611" fill="#212123"/>
</mask>
<g mask="url(#mask1_3477_16814)">
<ellipse cx="154.4" cy="89.5508" rx="6.68287" ry="6.72265" fill="#05C168"/>
<ellipse cx="447.755" cy="52.9243" rx="6.68287" ry="6.72265" fill="#FF4264"/>
<ellipse cx="450.937" cy="123.233" rx="6.68287" ry="6.72265" fill="#4F80FF"/>
<ellipse cx="304.198" cy="280.006" rx="6.68287" ry="6.72265" fill="#A174FF"/>
<rect x="33.0194" y="110.807" width="555.001" height="128.218" rx="15.685" fill="#2D2D2F" stroke="#3A3A3C" stroke-width="1.54279"/>
<path d="M181.097 207.357C170.229 207.357 161.418 198.547 161.418 187.678V141.226C161.418 130.358 170.229 121.547 181.097 121.547H227.041C237.909 121.547 246.72 130.358 246.72 141.226V187.678C246.72 198.547 237.909 207.357 227.041 207.357H181.097Z" fill="#FFAA2A"/>
<mask id="mask2_3477_16814" style="mask-type:alpha" maskUnits="userSpaceOnUse" x="182" y="138" width="47" height="53">
<path d="M206.451 138.291L228.861 151.065V162.741L215.415 154.857V160.745L222.088 164.637L222.188 174.717L215.415 170.824V185.594L206.451 190.784V138.291ZM204.459 138.291V190.784L195.495 185.594V154.857L182.049 162.741V151.065L204.459 138.291Z" fill="white"/>
</mask>
<g mask="url(#mask2_3477_16814)">
<path d="M206.451 138.291L228.861 151.065V162.741L215.415 154.857V160.745L222.088 164.637L222.188 174.717L215.415 170.824V185.594L206.451 190.784V138.291ZM204.459 138.291V190.784L195.495 185.594V154.857L182.049 162.741V151.065L204.459 138.291Z" fill="white"/>
</g>
<path d="M83.9183 209.624C74.0881 209.624 66.1191 201.655 66.1191 191.825V149.811C66.1191 139.981 74.0881 132.012 83.9183 132.012H125.473C135.303 132.012 143.272 139.981 143.272 149.811V191.825C143.272 201.655 135.303 209.624 125.473 209.624H83.9183Z" fill="#FF4264"/>
<path d="M85.2053 168.754L89.4395 161.409C89.4787 161.336 89.531 161.27 89.5899 161.217L97.1885 154.057C97.2702 153.981 97.3683 153.922 97.4729 153.882L103.999 151.459L109.502 155.347L106.762 164.153L96.4822 173.809L88.0989 175.709L85.2053 168.754ZM88.6973 177.309L92.6077 188.615L95.825 175.69L88.6973 177.309ZM118.15 151.588L111.948 155.072L122.227 162.619C122.443 161.647 122.695 160.322 122.754 159.194C122.75 159.181 122.75 159.165 122.75 159.148C122.783 157.542 122.521 155.862 121.658 154.411C120.883 153.105 119.719 152.15 118.192 151.548C118.179 151.562 118.17 151.578 118.15 151.588ZM111.362 179.263L107.112 166.13L98.4832 174.242L111.362 179.263ZM108.658 165.462L112.879 178.503C116.182 174.87 119.562 170.52 121.492 165.171L108.658 165.462ZM120.576 163.498L110.924 156.414L108.635 163.769L120.576 163.498ZM87.4123 178.721L84.5449 183.696C85.5257 188.287 88.9229 189.315 91.1626 189.567L87.4123 178.721ZM86.6734 176.645L84.2637 170.857V180.823L86.6734 176.645ZM116.005 150.858C115.992 150.854 115.979 150.848 115.963 150.848H106.059L110.473 153.968L116.005 150.858ZM97.5514 175.69L94.1216 189.464C101.096 188.426 106.327 184.638 110.568 180.767L97.5514 175.69ZM119.876 187.785C119.68 187.785 119.481 187.716 119.321 187.573L112.402 181.362C109.361 184.215 105.81 187.114 101.439 189.068L119.889 187.801C119.997 187.795 120.099 187.762 120.193 187.719C120.092 187.762 119.984 187.785 119.876 187.785ZM113.612 180.185L120.432 186.307C120.576 186.436 120.651 186.605 120.684 186.78L122.093 168.123C119.906 172.916 116.692 176.853 113.612 180.185Z" fill="white"/>
<rect x="265.445" y="102.711" width="88.5949" height="89.1222" rx="20.4387" fill="#1F78FF"/>
<path d="M310.548 151.76C313.525 151.76 315.938 149.333 315.938 146.338C315.938 143.344 313.525 140.917 310.548 140.917C307.571 140.917 305.158 143.344 305.158 146.338C305.158 149.333 307.571 151.76 310.548 151.76Z" fill="white"/>
<path d="M310.21 157.448C326.182 157.448 339.131 152.475 339.131 146.34C339.131 140.205 326.182 135.232 310.21 135.232C294.237 135.232 281.289 140.205 281.289 146.34C281.289 152.475 294.237 157.448 310.21 157.448Z" stroke="white" stroke-width="2.82148"/>
<path d="M300.647 151.893C308.633 165.808 319.389 174.601 324.67 171.534C329.952 168.466 327.759 154.7 319.773 140.785C311.787 126.87 301.031 118.076 295.749 121.143C290.468 124.211 292.661 137.978 300.647 151.893Z" stroke="white" stroke-width="2.82148"/>
<path d="M300.646 140.784C292.66 154.699 290.467 168.466 295.749 171.534C301.03 174.601 311.786 165.807 319.772 151.892C327.758 137.978 329.951 124.211 324.669 121.143C319.388 118.076 308.632 126.869 300.646 140.784Z" stroke="white" stroke-width="2.82148"/>
<path d="M372.762 141.117C372.762 130.249 381.572 121.438 392.441 121.438H438.385C449.253 121.438 458.064 130.249 458.064 141.117V187.569C458.064 198.437 449.253 207.248 438.385 207.248H392.441C381.572 207.248 372.762 198.437 372.762 187.569V141.117Z" fill="#FD5D2A"/>
<g filter="url(#filter0_d_3477_16814)">
<path d="M435.028 143.821C429.908 136.453 419.797 134.269 412.487 138.953L399.649 147.184C397.916 148.278 396.43 149.724 395.284 151.43C394.138 153.135 393.358 155.062 392.994 157.087C392.38 160.506 392.917 164.033 394.52 167.11C393.421 168.786 392.673 170.67 392.319 172.646C391.953 174.716 392.001 176.84 392.462 178.891C392.923 180.942 393.786 182.88 395.002 184.59C400.122 191.959 410.233 194.142 417.543 189.458L430.381 181.263C432.112 180.165 433.597 178.719 434.743 177.014C435.888 175.309 436.669 173.383 437.036 171.359C437.648 167.941 437.109 164.416 435.505 161.341C436.603 159.664 437.353 157.781 437.711 155.805C438.076 153.735 438.027 151.612 437.566 149.561C437.106 147.51 436.243 145.572 435.028 143.861" fill="white"/>
<path d="M411.23 185.303C409.209 185.831 407.076 185.722 405.118 184.991C403.16 184.261 401.472 182.944 400.282 181.218C399.552 180.189 399.033 179.024 398.756 177.791C398.48 176.558 398.451 175.282 398.673 174.037C398.745 173.633 398.847 173.234 398.978 172.844L399.219 172.101L399.879 172.596C401.395 173.71 403.087 174.557 404.885 175.102L405.377 175.246L405.333 175.741C405.285 176.42 405.475 177.094 405.869 177.647C406.229 178.167 406.737 178.563 407.327 178.782C407.917 179.002 408.559 179.034 409.168 178.875C409.446 178.8 409.711 178.683 409.955 178.529L422.774 170.299C423.088 170.099 423.358 169.836 423.566 169.526C423.774 169.215 423.915 168.865 423.98 168.496C424.045 168.121 424.036 167.736 423.951 167.364C423.866 166.993 423.709 166.642 423.487 166.332C423.128 165.813 422.62 165.417 422.03 165.197C421.44 164.978 420.798 164.945 420.189 165.104C419.911 165.179 419.645 165.295 419.402 165.451L414.479 168.595C413.674 169.109 412.796 169.496 411.875 169.744C409.857 170.269 407.728 170.159 405.774 169.429C403.821 168.7 402.136 167.386 400.947 165.664C400.218 164.634 399.701 163.469 399.427 162.236C399.152 161.003 399.125 159.727 399.347 158.484C399.564 157.263 400.033 156.101 400.722 155.073C401.411 154.044 402.306 153.172 403.349 152.512L416.207 144.281C417.007 143.769 417.88 143.382 418.796 143.133C420.817 142.605 422.949 142.713 424.906 143.444C426.863 144.175 428.55 145.492 429.739 147.218C430.471 148.246 430.99 149.411 431.268 150.644C431.545 151.877 431.574 153.154 431.354 154.398C431.277 154.805 431.175 155.207 431.048 155.602L430.802 156.344L430.148 155.849C428.628 154.727 426.93 153.873 425.127 153.324L424.634 153.18L424.679 152.685C424.735 152.003 424.551 151.322 424.157 150.764C423.795 150.253 423.288 149.866 422.703 149.653C422.117 149.439 421.481 149.411 420.878 149.57C420.6 149.644 420.334 149.761 420.091 149.917L407.248 158.132C406.934 158.331 406.665 158.594 406.457 158.903C406.25 159.213 406.108 159.562 406.042 159.929C405.977 160.306 405.988 160.691 406.072 161.063C406.157 161.436 406.314 161.787 406.534 162.098C406.891 162.613 407.396 163.006 407.981 163.225C408.565 163.445 409.202 163.48 409.807 163.326C410.085 163.25 410.351 163.133 410.595 162.98L415.518 159.84C416.322 159.321 417.202 158.932 418.127 158.687C420.147 158.157 422.279 158.265 424.236 158.995C426.193 159.724 427.881 161.041 429.07 162.767C429.801 163.795 430.32 164.96 430.597 166.193C430.875 167.426 430.904 168.702 430.684 169.947C430.467 171.168 429.999 172.33 429.309 173.358C428.62 174.386 427.726 175.259 426.682 175.919L413.839 184.149C413.032 184.664 412.153 185.053 411.23 185.303" fill="#FD5D2A"/>
</g>
<path d="M476.789 149.811C476.789 139.981 484.758 132.012 494.588 132.012H536.143C545.973 132.012 553.942 139.981 553.942 149.811V191.825C553.942 201.655 545.973 209.624 536.143 209.624H494.588C484.758 209.624 476.789 201.655 476.789 191.825V149.811Z" fill="#636363"/>
<path d="M516.622 146.662C503.051 146.662 492.047 157.73 492.047 171.384C492.047 182.307 499.088 191.573 508.853 194.842C510.081 195.071 510.532 194.306 510.532 193.653C510.532 193.064 510.509 191.116 510.499 189.05C503.662 190.546 502.219 186.133 502.219 186.133C501.101 183.276 499.491 182.516 499.491 182.516C497.261 180.982 499.659 181.013 499.659 181.013C502.126 181.188 503.426 183.561 503.426 183.561C505.618 187.34 509.175 186.248 510.577 185.616C510.798 184.018 511.435 182.928 512.138 182.31C506.679 181.685 500.941 179.565 500.941 170.093C500.941 167.394 501.901 165.188 503.473 163.457C503.218 162.834 502.377 160.32 503.711 156.915C503.711 156.915 505.775 156.25 510.471 159.449C512.431 158.901 514.534 158.626 516.622 158.617C518.711 158.626 520.815 158.901 522.779 159.449C527.47 156.25 529.53 156.915 529.53 156.915C530.868 160.32 530.026 162.834 529.771 163.457C531.347 165.188 532.3 167.394 532.3 170.093C532.3 179.588 526.551 181.679 521.079 182.291C521.96 183.058 522.746 184.562 522.746 186.869C522.746 190.176 522.717 192.839 522.717 193.653C522.717 194.311 523.16 195.082 524.406 194.839C534.165 191.566 541.198 182.303 541.198 171.384C541.198 157.73 530.195 146.662 516.622 146.662Z" fill="white"/>
<ellipse cx="104.026" cy="224.1" rx="4.16107" ry="4.18584" fill="white" fill-opacity="0.37"/>
<ellipse cx="414.026" cy="224.1" rx="4.16107" ry="4.18584" fill="white" fill-opacity="0.37"/>
<g filter="url(#filter1_d_3477_16814)">
<path d="M337.848 213.5L335.083 182.513C335.036 181.993 335.62 181.657 336.047 181.958L361.613 200.016C362.088 200.351 361.873 201.097 361.293 201.129L347.682 201.875C347.496 201.885 347.324 201.98 347.216 202.133L338.959 213.799C338.629 214.264 337.899 214.067 337.848 213.5Z" fill="#FDB52A"/>
<path d="M333.546 182.651L336.311 213.637C336.489 215.634 339.059 216.327 340.218 214.69L348.215 203.391L361.378 202.669C363.418 202.557 364.172 199.935 362.504 198.756L336.937 180.698C335.436 179.638 333.383 180.821 333.546 182.651Z" stroke="white" stroke-width="3.08557"/>
</g>
</g>
</g>
</g>
<defs>
<filter id="filter0_d_3477_16814" x="388.79" y="134.025" width="52.4497" height="62.0122" filterUnits="userSpaceOnUse" color-interpolation-filters="sRGB">
<feFlood flood-opacity="0" result="BackgroundImageFix"/>
<feColorMatrix in="SourceAlpha" type="matrix" values="0 0 0 0 0 0 0 0 0 0 0 0 0 0 0 0 0 0 127 0" result="hardAlpha"/>
<feOffset dy="0.826024"/>
<feGaussianBlur stdDeviation="1.6432"/>
<feComposite in2="hardAlpha" operator="out"/>
<feColorMatrix type="matrix" values="0 0 0 0 0.0705882 0 0 0 0 0.0705882 0 0 0 0 0.0745098 0 0 0 0.19 0"/>
<feBlend mode="normal" in2="BackgroundImageFix" result="effect1_dropShadow_3477_16814"/>
<feBlend mode="normal" in="SourceGraphic" in2="effect1_dropShadow_3477_16814" result="shape"/>
</filter>
<filter id="filter1_d_3477_16814" x="327.183" y="176.161" width="42.5918" height="48.019" filterUnits="userSpaceOnUse" color-interpolation-filters="sRGB">
<feFlood flood-opacity="0" result="BackgroundImageFix"/>
<feColorMatrix in="SourceAlpha" type="matrix" values="0 0 0 0 0 0 0 0 0 0 0 0 0 0 0 0 0 0 127 0" result="hardAlpha"/>
<feOffset dy="2.2207"/>
<feGaussianBlur stdDeviation="2.40576"/>
<feComposite in2="hardAlpha" operator="out"/>
<feColorMatrix type="matrix" values="0 0 0 0 0 0 0 0 0 0 0 0 0 0 0 0 0 0 0.35 0"/>
<feBlend mode="normal" in2="BackgroundImageFix" result="effect1_dropShadow_3477_16814"/>
<feBlend mode="normal" in="SourceGraphic" in2="effect1_dropShadow_3477_16814" result="shape"/>
</filter>
<clipPath id="clip0_3477_16814">
<rect width="620" height="350" fill="white"/>
</clipPath>
</defs>
</svg>
