<svg width="618" height="349" viewBox="0 0 618 349" fill="none" xmlns="http://www.w3.org/2000/svg">
<mask id="mask0_44_1004" style="mask-type:alpha" maskUnits="userSpaceOnUse" x="0" y="-1" width="618" height="350">
<path d="M0 -0.00585938H618V348.865H0V-0.00585938Z" fill="#0D0D0E"/>
</mask>
<g mask="url(#mask0_44_1004)">
<path d="M618 -0.00585938H0V348.397H618V-0.00585938Z" fill="#212123"/>
<mask id="mask1_44_1004" style="mask-type:alpha" maskUnits="userSpaceOnUse" x="0" y="-1" width="618" height="350">
<path d="M618 -0.00585938H0V348.397H618V-0.00585938Z" fill="#FFAA2A"/>
</mask>
<g mask="url(#mask1_44_1004)">
<path d="M483.389 34.6079H135.648C127.013 34.6079 120.014 41.6077 120.014 50.2423V297.402C120.014 306.037 127.013 313.037 135.648 313.037H483.389C492.023 313.037 499.023 306.037 499.023 297.402V50.2423C499.023 41.6077 492.023 34.6079 483.389 34.6079Z" fill="#2D2D2F" stroke="#3A3A3C" stroke-width="1.53781"/>
<path d="M365.848 169.091H443.787" stroke="#5E5E60" stroke-width="9.22685" stroke-linecap="round"/>
<path d="M285.436 169.091H346.268" stroke="#1F78FF" stroke-width="9.22685" stroke-linecap="round"/>
<path d="M248.426 135.451H348.234" stroke="#05C168" stroke-width="9.22685" stroke-linecap="round"/>
<path d="M174.637 135.451H228.844" stroke="#5E5E60" stroke-opacity="0.43" stroke-width="9.22685" stroke-linecap="round"/>
<path d="M367.814 135.451H422.023" stroke="#FF4264" stroke-width="9.22685" stroke-linecap="round"/>
<path d="M226.682 101.81H334.913" stroke="#5E5E60" stroke-opacity="0.43" stroke-width="9.22685" stroke-linecap="round"/>
<path d="M152.891 101.81H207.099" stroke="#7D42FB" stroke-width="9.22685" stroke-linecap="round"/>
<path d="M354.492 101.81H408.701" stroke="#5E5E60" stroke-width="9.22685" stroke-linecap="round"/>
<path d="M219.818 201.054H331.758" stroke="#FDB52A" stroke-width="9.22685" stroke-linecap="round"/>
<path d="M351.34 201.054H425.991" stroke="#5E5E60" stroke-width="9.22685" stroke-linecap="round"/>
<path d="M152.891 201.054H200.233" stroke="#5E5E60" stroke-width="9.22685" stroke-linecap="round"/>
<path d="M152.891 238.114H213.287" stroke="#FF4264" stroke-width="9.22685" stroke-linecap="round"/>
<path d="M327.172 238.114H439.112" stroke="#5E5E60" stroke-opacity="0.43" stroke-width="9.22685" stroke-linecap="round"/>
<path d="M232.871 238.114H307.589" stroke="#5E5E60" stroke-width="9.22685" stroke-linecap="round"/>
<path d="M174.637 268.29H253.939" stroke="#5E5E60" stroke-width="9.22685" stroke-linecap="round"/>
<path d="M367.818 268.29H466.143" stroke="#1F78FF" stroke-width="9.22685" stroke-linecap="round"/>
<path d="M273.523 268.29H348.242" stroke="#05C168" stroke-width="9.22685" stroke-linecap="round"/>
<path d="M146.204 61.8359C149.067 61.8359 151.389 59.5147 151.389 56.6514C151.389 53.788 149.067 51.4668 146.204 51.4668C143.341 51.4668 141.02 53.788 141.02 56.6514C141.02 59.5147 143.341 61.8359 146.204 61.8359Z" fill="#FE5F57"/>
<path d="M162.796 61.8359C165.659 61.8359 167.98 59.5147 167.98 56.6514C167.98 53.788 165.659 51.4668 162.796 51.4668C159.933 51.4668 157.611 53.788 157.611 56.6514C157.611 59.5147 159.933 61.8359 162.796 61.8359Z" fill="#FDBD2D"/>
<path d="M179.384 61.8359C182.247 61.8359 184.568 59.5147 184.568 56.6514C184.568 53.788 182.247 51.4668 179.384 51.4668C176.52 51.4668 174.199 53.788 174.199 56.6514C174.199 59.5147 176.52 61.8359 179.384 61.8359Z" fill="#26C840"/>
</g>
</g>
</svg>
