<svg width="618" height="349" viewBox="0 0 618 349" fill="none" xmlns="http://www.w3.org/2000/svg">
<mask id="mask0_44_952" style="mask-type:alpha" maskUnits="userSpaceOnUse" x="0" y="-1" width="618" height="350">
<path d="M0 -0.00585938H618V348.865H0V-0.00585938Z" fill="#0D0D0E"/>
</mask>
<g mask="url(#mask0_44_952)">
<path d="M0 30.1352C0 13.6471 13.3662 0.280762 29.8545 0.280762H588.146C604.633 0.280762 618 13.647 618 30.1352V278.462C618 294.951 604.633 308.316 588.146 308.316H29.8544C13.3662 308.316 0 294.951 0 278.462V30.1352Z" fill="#0D0D0E"/>
<path d="M618 -0.00585938H0V349.948H618V-0.00585938Z" fill="#212123"/>
<mask id="mask1_44_952" style="mask-type:alpha" maskUnits="userSpaceOnUse" x="0" y="-1" width="618" height="351">
<path d="M618 -0.00585938H0V349.948H618V-0.00585938Z" fill="#212123"/>
</mask>
<g mask="url(#mask1_44_952)">
<path d="M474.553 113.245H139.769C131.148 113.245 124.16 120.233 124.16 128.854V224.486C124.16 233.107 131.148 240.095 139.769 240.095H474.553C483.173 240.095 490.162 233.107 490.162 224.486V128.854C490.162 120.233 483.173 113.245 474.553 113.245Z" fill="#2D2D2F" stroke="#3A3A3C" stroke-width="1.5353"/>
<path d="M184.402 168.143L176.67 176.102L184.402 184.061" stroke="white" stroke-width="5.98671" stroke-linecap="round" stroke-linejoin="round"/>
<path d="M211.688 168.143L219.874 176.102L211.688 184.061" stroke="white" stroke-width="5.98671" stroke-linecap="round" stroke-linejoin="round"/>
<path d="M201.727 163.304L192.297 190.841" stroke="white" stroke-width="5.98671" stroke-linecap="round"/>
<path d="M238.262 189.129V162.002H248.262C249.565 162.002 250.842 162.117 252.094 162.347C253.345 162.551 254.546 162.96 255.695 163.573C257.739 164.62 259.272 166.165 260.293 168.209C261.34 170.252 261.864 172.717 261.864 175.604C261.864 179.972 260.727 183.318 258.454 185.642C256.207 187.967 252.898 189.129 248.53 189.129H238.262ZM248.568 184.225C248.926 184.225 249.31 184.199 249.719 184.148C250.127 184.097 250.536 184.033 250.945 183.957C251.353 183.854 251.736 183.74 252.094 183.612C252.452 183.483 252.758 183.344 253.013 183.19C254.061 182.475 254.84 181.466 255.35 180.163C255.887 178.835 256.155 177.315 256.155 175.604C256.155 174.25 256.002 173.024 255.695 171.926C255.388 170.827 254.916 169.894 254.278 169.129C253.562 168.286 252.643 167.71 251.519 167.404C250.42 167.097 249.335 166.945 248.262 166.945H243.818V184.225H248.568ZM278.092 186.638C277.325 187.66 276.393 188.389 275.295 188.822C274.196 189.257 272.92 189.461 271.463 189.435C269.598 189.384 268.04 188.861 266.789 187.864C266.125 187.303 265.601 186.638 265.218 185.873C264.861 185.08 264.681 184.148 264.681 183.075C264.707 181.977 264.95 181.006 265.41 180.163C265.895 179.295 266.623 178.579 267.594 178.018C268.411 177.584 269.33 177.277 270.352 177.098C271.399 176.92 272.536 176.83 273.762 176.83H277.9C277.977 175.578 277.683 174.646 277.019 174.033C276.38 173.394 275.473 173.062 274.299 173.036C273.915 173.036 273.52 173.062 273.111 173.113C272.702 173.165 272.32 173.267 271.962 173.42C271.63 173.574 271.336 173.79 271.081 174.071C270.85 174.327 270.697 174.646 270.62 175.029H265.065C265.193 173.803 265.524 172.781 266.061 171.964C266.623 171.121 267.326 170.444 268.168 169.933C269.011 169.422 269.943 169.065 270.965 168.861C272.012 168.63 273.085 168.516 274.183 168.516C274.796 168.516 275.422 168.554 276.061 168.631C276.699 168.681 277.325 168.809 277.938 169.013C278.551 169.193 279.126 169.448 279.663 169.78C280.225 170.087 280.748 170.495 281.234 171.006C282.102 172.003 282.638 173.152 282.842 174.455C283.073 175.732 283.175 176.983 283.149 178.21V189.129H278.206L278.092 186.638ZM277.9 180.202H273.954C273.57 180.202 273.137 180.24 272.651 180.317C272.166 180.393 271.744 180.534 271.387 180.738C271.029 180.943 270.723 181.211 270.467 181.543C270.237 181.875 270.123 182.283 270.123 182.769C270.123 183.177 270.199 183.535 270.352 183.841C270.531 184.148 270.749 184.403 271.004 184.608C271.285 184.812 271.617 184.979 272 185.106C272.383 185.208 272.766 185.259 273.149 185.259C273.89 185.285 274.579 185.157 275.218 184.876C275.882 184.595 276.457 184.199 276.943 183.689C277.249 183.279 277.479 182.82 277.632 182.309C277.811 181.773 277.9 181.07 277.9 180.202ZM292.661 171.465C293.478 170.495 294.346 169.767 295.266 169.281C296.211 168.797 297.336 168.554 298.638 168.554C298.97 168.554 299.289 168.567 299.596 168.593C299.902 168.618 300.183 168.656 300.439 168.707V173.688C299.851 173.688 299.251 173.701 298.638 173.726C298.05 173.726 297.488 173.778 296.952 173.88C296.416 173.982 295.892 174.148 295.381 174.378C294.895 174.582 294.462 174.888 294.078 175.297C293.491 175.962 293.12 176.676 292.968 177.443C292.84 178.209 292.775 179.078 292.775 180.049V189.129H287.374V168.938H292.355L292.661 171.465ZM308.565 181.428V189.129H303.164V162.002H308.565V176.753H311.248L315.615 168.938H321.784L315.807 178.516L322.244 189.129H315.96L311.439 181.428H308.565ZM328.479 189.129L322.233 168.938H328.211L331.85 182.96L335.988 168.938H341.391L345.49 182.96L349.13 168.938H354.763L348.556 189.129H342.617L338.555 175.757L334.609 189.129H328.479ZM366.089 185.029C366.856 185.029 367.507 184.915 368.044 184.685C368.606 184.429 369.065 184.021 369.423 183.459H375.094C374.813 184.506 374.378 185.412 373.791 186.179C373.229 186.945 372.539 187.571 371.722 188.057C370.93 188.541 370.049 188.899 369.078 189.129C368.108 189.333 367.086 189.435 366.013 189.435C362.744 189.435 360.266 188.516 358.579 186.677C356.92 184.838 356.089 182.257 356.089 178.937C356.089 177.43 356.307 176.039 356.74 174.761C357.201 173.484 357.839 172.385 358.656 171.465C359.473 170.52 360.483 169.793 361.683 169.281C362.909 168.771 364.302 168.516 365.86 168.516C367.673 168.516 369.244 168.835 370.573 169.474C371.9 170.112 372.948 170.993 373.714 172.117C374.506 173.216 375.03 174.505 375.285 175.987C375.566 177.469 375.566 179.052 375.285 180.738H361.492C361.594 181.938 362.015 182.96 362.756 183.803C363.496 184.621 364.608 185.029 366.089 185.029ZM370.266 177.021C370.266 176.382 370.151 175.821 369.921 175.336C369.691 174.824 369.384 174.416 369.002 174.11C368.618 173.778 368.158 173.535 367.622 173.381C367.112 173.229 366.574 173.152 366.013 173.152C364.659 173.177 363.599 173.548 362.833 174.263C362.092 174.952 361.657 175.872 361.53 177.021H370.266ZM384.41 171.504C385.227 170.533 386.223 169.806 387.398 169.32C388.599 168.809 389.799 168.541 390.999 168.516C392.431 168.49 393.758 168.745 394.985 169.281C396.211 169.793 397.232 170.661 398.05 171.887C398.714 172.781 399.199 173.842 399.506 175.068C399.812 176.268 399.965 177.533 399.965 178.86C399.965 180.521 399.761 182.041 399.352 183.42C398.97 184.774 398.306 185.936 397.36 186.906C396.568 187.75 395.61 188.389 394.486 188.822C393.389 189.231 392.277 189.435 391.153 189.435C389.85 189.435 388.624 189.219 387.475 188.784C386.351 188.325 385.33 187.545 384.41 186.447V189.129H379.007V162.002H384.41V171.504ZM384.41 179.091C384.436 180.725 384.895 182.053 385.789 183.075C386.708 184.097 387.973 184.621 389.582 184.646C390.451 184.672 391.192 184.544 391.805 184.263C392.418 183.982 392.915 183.586 393.299 183.075C393.708 182.538 394.014 181.925 394.218 181.236C394.448 180.547 394.563 179.793 394.563 178.976C394.563 178.184 394.448 177.443 394.218 176.753C394.014 176.063 393.695 175.463 393.26 174.952C392.851 174.442 392.341 174.046 391.728 173.765C391.115 173.484 390.374 173.343 389.505 173.343C388.688 173.343 387.947 173.497 387.283 173.803C386.645 174.11 386.108 174.531 385.674 175.068C385.265 175.578 384.946 176.191 384.717 176.907C384.512 177.596 384.41 178.324 384.41 179.091ZM430.243 162.002H436.68L427.715 175.565L436.91 189.129H430.435L424.305 179.818L417.944 189.129H411.698L421.009 175.527L412.005 162.002H418.48L424.419 171.39L430.243 162.002Z" fill="white"/>
<g filter="url(#filter0_d_44_952)">
<path d="M528.924 152.452H493.002C487.358 152.452 482.783 157.027 482.783 162.67C482.783 168.314 487.358 172.889 493.002 172.889H528.924C534.567 172.889 539.142 168.314 539.142 162.67C539.142 157.027 534.567 152.452 528.924 152.452Z" fill="#FFAA2A"/>
</g>
<g filter="url(#filter1_d_44_952)">
<path d="M476.086 151.47L475.024 139.668C474.978 139.152 475.557 138.817 475.982 139.114L485.751 145.964C486.226 146.296 486.012 147.04 485.434 147.071L480.635 147.332C480.449 147.343 480.279 147.437 480.171 147.587L477.189 151.77C476.861 152.23 476.136 152.034 476.086 151.47Z" fill="#FDB52A"/>
<path d="M474.106 139.751L475.167 151.553C475.294 152.968 477.113 153.462 477.939 152.304L480.833 148.245L485.483 147.991C486.936 147.913 487.47 146.044 486.279 145.209L476.509 138.36C475.443 137.612 473.99 138.453 474.106 139.751Z" stroke="white" stroke-width="1.84236"/>
</g>
<g filter="url(#filter2_d_44_952)">
<path d="M485.375 239.423H449.453C443.809 239.423 439.234 243.998 439.234 249.642C439.234 255.285 443.809 259.86 449.453 259.86H485.375C491.018 259.86 495.593 255.285 495.593 249.642C495.593 243.998 491.018 239.423 485.375 239.423Z" fill="#FF4264"/>
</g>
<g filter="url(#filter3_d_44_952)">
<path d="M432.534 238.44L431.473 226.638C431.427 226.122 432.006 225.787 432.431 226.085L442.201 232.934C442.674 233.266 442.462 234.011 441.884 234.042L437.083 234.304C436.899 234.314 436.727 234.407 436.62 234.558L433.638 238.74C433.309 239.201 432.585 239.004 432.534 238.44Z" fill="#FF4264"/>
<path d="M430.555 226.721L431.617 238.523C431.745 239.938 433.564 240.432 434.388 239.275L437.284 235.215L441.934 234.962C443.385 234.883 443.92 233.014 442.729 232.18L432.96 225.331C431.893 224.583 430.439 225.423 430.555 226.721Z" stroke="white" stroke-width="1.84236"/>
</g>
<g filter="url(#filter4_d_44_952)">
<path d="M148.832 239.013H107.687C102.044 239.013 97.4688 243.588 97.4688 249.231C97.4688 254.875 102.044 259.45 107.687 259.45H148.832C154.476 259.45 159.051 254.875 159.051 249.231C159.051 243.588 154.476 239.013 148.832 239.013Z" fill="#7D42FB"/>
</g>
<g filter="url(#filter5_d_44_952)">
<path d="M153.415 232.078L164.394 226.935C164.874 226.71 165.398 227.151 165.261 227.662L162.088 239.425C161.934 239.996 161.145 240.051 160.913 239.507L158.983 234.995C158.908 234.821 158.759 234.689 158.575 234.639L153.515 233.242C152.957 233.089 152.891 232.323 153.415 232.078Z" fill="#7D42FB"/>
<path d="M164.002 226.102L153.023 231.243C151.725 231.852 151.886 233.748 153.27 234.13L158.193 235.489L160.066 239.869C160.642 241.216 162.596 241.08 162.977 239.665L166.15 227.902C166.493 226.633 165.193 225.544 164.002 226.102Z" stroke="white" stroke-width="1.84236"/>
</g>
<path d="M123.844 147.519H92.1345C86.491 147.519 81.916 152.094 81.916 157.737C81.916 163.381 86.491 167.956 92.1345 167.956H123.844C129.487 167.956 134.062 163.381 134.062 157.737C134.062 152.094 129.487 147.519 123.844 147.519Z" fill="#05C168"/>
<g filter="url(#filter6_d_44_952)">
<path d="M134.75 139.877L145.625 134.784C146.1 134.561 146.619 134.996 146.483 135.504L143.34 147.155C143.187 147.72 142.407 147.775 142.176 147.236L140.265 142.767C140.191 142.594 140.043 142.464 139.861 142.414L134.848 141.031C134.295 140.878 134.23 140.12 134.75 139.877Z" fill="#05C168"/>
<path d="M134.604 141.918C133.225 141.538 133.064 139.649 134.358 139.043L145.232 133.95C146.418 133.395 147.713 134.48 147.372 135.744L144.229 147.395C143.85 148.805 141.902 148.94 141.328 147.598L139.475 143.263L134.604 141.918ZM134.604 141.918L134.848 141.031" stroke="white" stroke-width="1.84236"/>
</g>
<path d="M190.274 41.0339C195.141 41.0339 199.087 37.0941 199.087 32.2342C199.087 27.3743 195.141 23.4346 190.274 23.4346C185.407 23.4346 181.461 27.3743 181.461 32.2342C181.461 37.0941 185.407 41.0339 190.274 41.0339Z" fill="#1F78FF"/>
<path d="M309.518 306.088C314.385 306.088 318.331 302.148 318.331 297.288C318.331 292.428 314.385 288.488 309.518 288.488C304.651 288.488 300.705 292.428 300.705 297.288C300.705 302.148 304.651 306.088 309.518 306.088Z" fill="#7D42FB"/>
<path d="M466.092 84.5192C470.959 84.5192 474.905 80.5795 474.905 75.7196C474.905 70.8597 470.959 66.9199 466.092 66.9199C461.225 66.9199 457.279 70.8597 457.279 75.7196C457.279 80.5795 461.225 84.5192 466.092 84.5192Z" fill="#FF4264"/>
<path d="M1.55498 189.091C6.42215 189.091 10.3678 185.151 10.3678 180.291C10.3678 175.431 6.42215 171.492 1.55498 171.492C-3.31219 171.492 -7.25781 175.431 -7.25781 180.291C-7.25781 185.151 -3.31219 189.091 1.55498 189.091Z" fill="#FDB52A"/>
<path d="M616.444 258.461C621.311 258.461 625.256 254.521 625.256 249.661C625.256 244.801 621.311 240.861 616.444 240.861C611.576 240.861 607.631 244.801 607.631 249.661C607.631 254.521 611.576 258.461 616.444 258.461Z" fill="#1F78FF"/>
</g>
</g>
<defs>
<filter id="filter0_d_44_952" x="476.245" y="148.931" width="69.4359" height="33.5135" filterUnits="userSpaceOnUse" color-interpolation-filters="sRGB">
<feFlood flood-opacity="0" result="BackgroundImageFix"/>
<feColorMatrix in="SourceAlpha" type="matrix" values="0 0 0 0 0 0 0 0 0 0 0 0 0 0 0 0 0 0 127 0" result="hardAlpha"/>
<feOffset dy="3.01764"/>
<feGaussianBlur stdDeviation="3.26912"/>
<feComposite in2="hardAlpha" operator="out"/>
<feColorMatrix type="matrix" values="0 0 0 0 0 0 0 0 0 0 0 0 0 0 0 0 0 0 0.35 0"/>
<feBlend mode="normal" in2="BackgroundImageFix" result="effect1_dropShadow_44_952"/>
<feBlend mode="normal" in="SourceGraphic" in2="effect1_dropShadow_44_952" result="shape"/>
</filter>
<filter id="filter1_d_44_952" x="468.39" y="134.578" width="24.2541" height="26.2917" filterUnits="userSpaceOnUse" color-interpolation-filters="sRGB">
<feFlood flood-opacity="0" result="BackgroundImageFix"/>
<feColorMatrix in="SourceAlpha" type="matrix" values="0 0 0 0 0 0 0 0 0 0 0 0 0 0 0 0 0 0 127 0" result="hardAlpha"/>
<feOffset dy="2.20993"/>
<feGaussianBlur stdDeviation="2.39408"/>
<feComposite in2="hardAlpha" operator="out"/>
<feColorMatrix type="matrix" values="0 0 0 0 0 0 0 0 0 0 0 0 0 0 0 0 0 0 0.35 0"/>
<feBlend mode="normal" in2="BackgroundImageFix" result="effect1_dropShadow_44_952"/>
<feBlend mode="normal" in="SourceGraphic" in2="effect1_dropShadow_44_952" result="shape"/>
</filter>
<filter id="filter2_d_44_952" x="432.696" y="235.903" width="69.4359" height="33.5135" filterUnits="userSpaceOnUse" color-interpolation-filters="sRGB">
<feFlood flood-opacity="0" result="BackgroundImageFix"/>
<feColorMatrix in="SourceAlpha" type="matrix" values="0 0 0 0 0 0 0 0 0 0 0 0 0 0 0 0 0 0 127 0" result="hardAlpha"/>
<feOffset dy="3.01764"/>
<feGaussianBlur stdDeviation="3.26912"/>
<feComposite in2="hardAlpha" operator="out"/>
<feColorMatrix type="matrix" values="0 0 0 0 0 0 0 0 0 0 0 0 0 0 0 0 0 0 0.35 0"/>
<feBlend mode="normal" in2="BackgroundImageFix" result="effect1_dropShadow_44_952"/>
<feBlend mode="normal" in="SourceGraphic" in2="effect1_dropShadow_44_952" result="shape"/>
</filter>
<filter id="filter3_d_44_952" x="424.839" y="221.548" width="24.256" height="26.2912" filterUnits="userSpaceOnUse" color-interpolation-filters="sRGB">
<feFlood flood-opacity="0" result="BackgroundImageFix"/>
<feColorMatrix in="SourceAlpha" type="matrix" values="0 0 0 0 0 0 0 0 0 0 0 0 0 0 0 0 0 0 127 0" result="hardAlpha"/>
<feOffset dy="2.20993"/>
<feGaussianBlur stdDeviation="2.39408"/>
<feComposite in2="hardAlpha" operator="out"/>
<feColorMatrix type="matrix" values="0 0 0 0 0 0 0 0 0 0 0 0 0 0 0 0 0 0 0.35 0"/>
<feBlend mode="normal" in2="BackgroundImageFix" result="effect1_dropShadow_44_952"/>
<feBlend mode="normal" in="SourceGraphic" in2="effect1_dropShadow_44_952" result="shape"/>
</filter>
<filter id="filter4_d_44_952" x="90.9305" y="235.492" width="74.6585" height="33.5135" filterUnits="userSpaceOnUse" color-interpolation-filters="sRGB">
<feFlood flood-opacity="0" result="BackgroundImageFix"/>
<feColorMatrix in="SourceAlpha" type="matrix" values="0 0 0 0 0 0 0 0 0 0 0 0 0 0 0 0 0 0 127 0" result="hardAlpha"/>
<feOffset dy="3.01764"/>
<feGaussianBlur stdDeviation="3.26912"/>
<feComposite in2="hardAlpha" operator="out"/>
<feColorMatrix type="matrix" values="0 0 0 0 0 0 0 0 0 0 0 0 0 0 0 0 0 0 0.35 0"/>
<feBlend mode="normal" in2="BackgroundImageFix" result="effect1_dropShadow_44_952"/>
<feBlend mode="normal" in="SourceGraphic" in2="effect1_dropShadow_44_952" result="shape"/>
</filter>
<filter id="filter5_d_44_952" x="146.32" y="222.394" width="25.7027" height="26.4855" filterUnits="userSpaceOnUse" color-interpolation-filters="sRGB">
<feFlood flood-opacity="0" result="BackgroundImageFix"/>
<feColorMatrix in="SourceAlpha" type="matrix" values="0 0 0 0 0 0 0 0 0 0 0 0 0 0 0 0 0 0 127 0" result="hardAlpha"/>
<feOffset dy="2.25848"/>
<feGaussianBlur stdDeviation="2.44668"/>
<feComposite in2="hardAlpha" operator="out"/>
<feColorMatrix type="matrix" values="0 0 0 0 0 0 0 0 0 0 0 0 0 0 0 0 0 0 0.35 0"/>
<feBlend mode="normal" in2="BackgroundImageFix" result="effect1_dropShadow_44_952"/>
<feBlend mode="normal" in="SourceGraphic" in2="effect1_dropShadow_44_952" result="shape"/>
</filter>
<filter id="filter6_d_44_952" x="127.704" y="130.268" width="25.4928" height="26.2701" filterUnits="userSpaceOnUse" color-interpolation-filters="sRGB">
<feFlood flood-opacity="0" result="BackgroundImageFix"/>
<feColorMatrix in="SourceAlpha" type="matrix" values="0 0 0 0 0 0 0 0 0 0 0 0 0 0 0 0 0 0 127 0" result="hardAlpha"/>
<feOffset dy="2.23706"/>
<feGaussianBlur stdDeviation="2.42349"/>
<feComposite in2="hardAlpha" operator="out"/>
<feColorMatrix type="matrix" values="0 0 0 0 0 0 0 0 0 0 0 0 0 0 0 0 0 0 0.35 0"/>
<feBlend mode="normal" in2="BackgroundImageFix" result="effect1_dropShadow_44_952"/>
<feBlend mode="normal" in="SourceGraphic" in2="effect1_dropShadow_44_952" result="shape"/>
</filter>
</defs>
</svg>
