<svg width="620" height="350" viewBox="0 0 620 350" fill="none" xmlns="http://www.w3.org/2000/svg">
<g clip-path="url(#clip0_3477_16811)">
<mask id="mask0_3477_16811" style="mask-type:alpha" maskUnits="userSpaceOnUse" x="0" y="0" width="620" height="350">
<path d="M0 0H620V350H0V0Z" fill="#0D0D0E"/>
</mask>
<g mask="url(#mask0_3477_16811)">
<path d="M0 29.5022C0 12.9337 13.4315 -0.497803 30 -0.497803H590C606.569 -0.497803 620 12.9337 620 29.5022V278.996C620 295.565 606.569 308.997 590 308.997H30C13.4315 308.997 0 295.565 0 278.997V29.5022Z" fill="#0D0D0E"/>
<rect width="620" height="349.53" fill="#212123"/>
<mask id="mask1_3477_16811" style="mask-type:alpha" maskUnits="userSpaceOnUse" x="0" y="0" width="620" height="350">
<rect width="620" height="349.53" fill="#212123"/>
</mask>
<g mask="url(#mask1_3477_16811)">
<g opacity="0.7">
<ellipse cx="310.043" cy="174.435" rx="220.492" ry="220.492" fill="#212123"/>
<path d="M529.764 174.435C529.764 295.783 431.391 394.156 310.043 394.156C188.695 394.156 90.3222 295.783 90.3222 174.435C90.3222 53.0866 188.695 -45.2857 310.043 -45.2857C431.391 -45.2857 529.764 53.0866 529.764 174.435Z" stroke="#5E5E60" stroke-opacity="0.49" stroke-width="1.54279"/>
</g>
<g filter="url(#filter0_i_3477_16811)">
<circle cx="309.999" cy="174.39" r="184.128" fill="#212123"/>
</g>
<circle cx="309.999" cy="174.39" r="183.356" stroke="#5E5E60" stroke-opacity="0.35" stroke-width="1.54279"/>
<rect x="81.1406" y="132.259" width="70.7383" height="70.7383" rx="12.1945" fill="#25C6EE"/>
<g clip-path="url(#clip1_3477_16811)">
<path d="M94.3776 163.578C94.2754 163.578 94.2498 163.527 94.3009 163.45L94.8373 162.761C94.8884 162.684 95.0161 162.633 95.1183 162.633H104.237C104.339 162.633 104.365 162.709 104.314 162.786L103.88 163.45C103.829 163.527 103.701 163.603 103.624 163.603L94.3776 163.578Z" fill="white"/>
<path d="M90.526 165.928C90.4238 165.928 90.3983 165.877 90.4494 165.801L90.9858 165.111C91.0369 165.034 91.1646 164.983 91.2668 164.983H102.914C103.017 164.983 103.068 165.06 103.042 165.136L102.838 165.749C102.812 165.852 102.71 165.903 102.608 165.903L90.526 165.928Z" fill="white"/>
<path d="M96.7057 168.279C96.6035 168.279 96.578 168.202 96.6291 168.126L96.9867 167.487C97.0377 167.411 97.1399 167.334 97.2421 167.334H102.351C102.453 167.334 102.504 167.411 102.504 167.513L102.453 168.126C102.453 168.228 102.351 168.305 102.274 168.305L96.7057 168.279Z" fill="white"/>
<path d="M123.21 163.119C121.601 163.527 120.503 163.834 118.919 164.242C118.536 164.345 118.511 164.37 118.178 163.987C117.795 163.553 117.514 163.272 116.978 163.016C115.369 162.225 113.811 162.454 112.355 163.4C110.618 164.523 109.724 166.184 109.749 168.253C109.775 170.296 111.18 171.982 113.198 172.263C114.934 172.493 116.39 171.88 117.54 170.577C117.77 170.296 117.974 169.99 118.23 169.632C117.31 169.632 116.161 169.632 113.3 169.632C112.763 169.632 112.636 169.3 112.814 168.866C113.146 168.074 113.76 166.746 114.117 166.082C114.194 165.928 114.373 165.673 114.756 165.673C116.058 165.673 120.86 165.673 124.053 165.673C124.002 166.363 124.002 167.052 123.9 167.742C123.619 169.581 122.929 171.267 121.806 172.748C119.966 175.175 117.565 176.682 114.526 177.091C112.023 177.423 109.698 176.937 107.655 175.405C105.764 173.974 104.692 172.084 104.411 169.734C104.079 166.95 104.896 164.447 106.582 162.25C108.395 159.875 110.796 158.368 113.734 157.831C116.135 157.397 118.434 157.678 120.503 159.083C121.857 159.977 122.827 161.203 123.466 162.684C123.619 162.914 123.517 163.042 123.21 163.119Z" fill="white"/>
<path d="M131.669 177.244C129.344 177.193 127.224 176.529 125.436 174.997C123.929 173.694 122.984 172.034 122.677 170.067C122.218 167.18 123.01 164.626 124.746 162.353C126.611 159.901 128.859 158.623 131.899 158.087C134.504 157.627 136.956 157.883 139.178 159.39C141.196 160.769 142.448 162.634 142.78 165.086C143.214 168.534 142.218 171.344 139.842 173.745C138.157 175.456 136.088 176.529 133.712 177.015C133.022 177.142 132.333 177.168 131.669 177.244ZM137.748 166.925C137.722 166.593 137.722 166.338 137.671 166.082C137.212 163.553 134.887 162.123 132.46 162.685C130.085 163.221 128.552 164.728 127.99 167.129C127.531 169.122 128.501 171.14 130.34 171.957C131.745 172.57 133.15 172.493 134.504 171.804C136.522 170.756 137.62 169.122 137.748 166.925Z" fill="white"/>
</g>
<g filter="url(#filter1_f_3477_16811)">
<rect x="410.906" y="18.3499" width="61.3758" height="61.3758" rx="10.5805" fill="#1F78FF"/>
<path d="M441.582 53.0295C443.793 53.0295 445.585 51.2376 445.585 49.0272C445.585 46.8168 443.793 45.0249 441.582 45.0249C439.372 45.0249 437.58 46.8168 437.58 49.0272C437.58 51.2376 439.372 53.0295 441.582 53.0295Z" fill="white"/>
<path d="M441.331 57.2278C453.192 57.2278 462.807 53.5566 462.807 49.028C462.807 44.4993 453.192 40.8281 441.331 40.8281C429.471 40.8281 419.855 44.4993 419.855 49.028C419.855 53.5566 429.471 57.2278 441.331 57.2278Z" stroke="white" stroke-width="2.82148"/>
<path d="M434.229 53.1278C440.159 63.3995 448.146 69.8908 452.068 67.6265C455.99 65.3622 454.362 55.1997 448.431 44.928C442.501 34.6562 434.514 28.1649 430.592 30.4293C426.67 32.6936 428.298 42.8561 434.229 53.1278Z" stroke="white" stroke-width="2.82148"/>
<path d="M434.227 44.9276C428.297 55.1993 426.669 65.3618 430.591 67.6261C434.513 69.8904 442.5 63.3991 448.43 53.1274C454.36 42.8557 455.989 32.6932 452.067 30.4289C448.145 28.1645 440.158 34.6558 434.227 44.9276Z" stroke="white" stroke-width="2.82148"/>
</g>
<rect x="259.029" y="127.578" width="94.4253" height="94.4253" rx="16.2779" fill="#FFC42C"/>
<path d="M306.819 144.097C304.319 144.105 302.586 144.325 300.492 144.687C294.306 145.764 293.179 148.026 293.179 152.194V158.564H307.646V161.779H292.629H285.637C281.4 161.779 277.691 163.776 276.516 168.561C275.189 174.054 275.129 177.494 276.516 183.229C277.569 187.507 279.889 190.713 284.128 190.713H289.966V182.509C289.966 177.741 294.284 173.031 299.231 173.031H310.863C314.919 173.031 318.9 170.038 318.9 165.995V152.194C318.9 148.273 316.073 145.341 312.12 144.684C312.218 144.674 309.297 144.087 306.819 144.097ZM298.807 150.527C300.127 150.527 301.218 151.615 301.218 152.941C301.218 154.28 300.127 155.349 298.807 155.349C297.461 155.349 296.396 154.282 296.396 152.941C296.396 151.62 297.461 150.527 298.807 150.527Z" fill="white"/>
<path d="M305.259 205.18C307.759 205.172 309.492 204.952 311.586 204.59C317.772 203.513 318.899 201.251 318.899 197.083V190.713H304.432V187.498H319.45H326.443C330.68 187.498 334.388 185.502 335.563 180.716C336.891 175.223 336.95 171.783 335.563 166.048C334.509 161.771 332.189 158.564 327.95 158.564H322.112V166.768C322.112 171.536 317.794 176.246 312.847 176.246H301.215C297.159 176.246 293.178 179.239 293.178 183.282V197.083C293.178 201.004 296.005 203.936 299.958 204.593C299.86 204.603 302.781 205.19 305.259 205.18ZM313.273 198.75C311.953 198.75 310.861 197.662 310.861 196.336C310.861 194.997 311.953 193.928 313.273 193.928C314.618 193.928 315.684 194.995 315.684 196.336C315.684 197.657 314.616 198.75 313.273 198.75Z" fill="white"/>
<rect x="161.24" y="-9.73706" width="73.8591" height="73.8591" rx="12.7325" fill="#8A3BFF"/>
<path d="M219.323 17.3967C219.323 16.5972 219.152 15.8907 218.806 15.2845C218.466 14.6881 217.958 14.1883 217.275 13.7932C211.643 10.5456 206.005 7.30787 200.375 4.05693C198.857 3.18059 197.385 3.2127 195.878 4.10163C193.636 5.42359 182.412 11.8541 179.068 13.7914C177.69 14.5889 177.02 15.8092 177.02 17.3952C177.018 23.9264 177.02 30.4576 177.018 36.9887C177.018 37.7707 177.182 38.4636 177.512 39.0607C177.852 39.675 178.368 40.1885 179.066 40.5926C182.411 42.5298 193.636 48.9599 195.878 50.2823C197.385 51.1717 198.857 51.2035 200.375 50.327C206.006 47.0759 211.644 43.8382 217.277 40.5906C217.975 40.1867 218.491 39.6729 218.831 39.0591C219.161 38.4618 219.325 37.7691 219.325 36.9869C219.325 36.9869 219.325 23.928 219.323 17.3967Z" fill="#F9F9F9"/>
<path d="M207.304 23.4902V25.3155H209.129V23.4902H210.042V25.3155H211.867V26.2282H210.042V28.0533H211.867V28.966H210.042V30.7912H209.129V28.966H207.304V30.7912H206.392V28.966H204.566V28.0533H206.392V26.2282H204.566V25.3155H206.392V23.4902H207.304ZM209.129 26.228H207.304V28.0533H209.129V26.228Z" fill="#8A3BFF"/>
<path d="M197.356 14.3229C202.117 14.3229 206.273 16.9084 208.5 20.7516L208.478 20.7146L202.876 23.9398C201.773 22.0713 199.75 20.8103 197.429 20.7843L197.356 20.7839C193.817 20.7839 190.947 23.6531 190.947 27.1921C190.946 28.3076 191.238 29.4039 191.793 30.3716C192.897 32.2999 194.974 33.6006 197.356 33.6006C199.753 33.6006 201.841 32.2834 202.94 30.3344L202.913 30.3812L208.506 33.6213C206.304 37.432 202.205 40.0095 197.499 40.0609L197.356 40.0617C192.58 40.0617 188.412 37.4602 186.191 33.5966C185.107 31.7105 184.486 29.5239 184.486 27.1921C184.486 20.0847 190.248 14.3228 197.356 14.3228L197.356 14.3229Z" fill="#8A3BFF"/>
<rect x="445.232" y="206.638" width="79.0604" height="79.0604" rx="14.9579" fill="#FFD600"/>
<path d="M497.388 264.688C498.581 266.625 499.877 268.482 502.622 268.482C504.928 268.482 506.138 267.335 506.138 265.75C506.138 263.852 504.887 263.178 502.35 262.074L500.959 261.481C496.945 259.778 494.276 257.644 494.276 253.137C494.276 248.984 497.455 245.823 502.424 245.823C505.962 245.823 508.505 247.048 510.338 250.258L506.006 253.027C505.052 251.324 504.022 250.654 502.424 250.654C500.794 250.654 499.761 251.683 499.761 253.027C499.761 254.689 500.795 255.361 503.182 256.39L504.573 256.982C509.304 258.997 511.972 261.055 511.972 265.681C511.972 270.665 508.036 273.397 502.752 273.397C497.583 273.397 494.648 270.803 493.014 267.592L497.388 264.688ZM477.42 264.829C478.292 266.391 479.617 267.592 481.524 267.592C483.347 267.592 484.397 266.872 484.397 264.071V245.821H490.141V264.954C490.141 270.756 486.775 273.397 481.86 273.397C477.418 273.397 474.213 270.388 472.906 267.592L477.42 264.829Z" fill="#000001"/>
<g filter="url(#filter2_f_3477_16811)">
<rect x="185.168" y="279.457" width="79.0604" height="79.0604" rx="13.6291" fill="#FF4264"/>
<path d="M201.924 317.338L207.307 308.101C207.357 308.009 207.424 307.926 207.498 307.86L217.159 298.856C217.263 298.76 217.388 298.685 217.521 298.635L225.819 295.588L232.815 300.477L229.331 311.551L216.262 323.694L205.603 326.084L201.924 317.338ZM206.364 328.096L211.335 342.314L215.426 326.059L206.364 328.096ZM243.81 295.75L235.924 300.132L248.994 309.622C249.269 308.4 249.589 306.733 249.664 305.316C249.659 305.299 249.659 305.278 249.659 305.257C249.701 303.237 249.368 301.125 248.271 299.3C247.286 297.658 245.806 296.457 243.864 295.7C243.848 295.717 243.835 295.738 243.81 295.75ZM235.18 330.553L229.776 314.037L218.806 324.239L235.18 330.553ZM231.742 313.197L237.109 329.597C241.308 325.029 245.606 319.558 248.059 312.832L231.742 313.197ZM246.895 310.728L234.623 301.82L231.713 311.069L246.895 310.728ZM204.73 329.871L201.084 336.128C202.331 341.902 206.65 343.195 209.498 343.511L204.73 329.871ZM203.79 327.261L200.727 319.982V332.515L203.79 327.261ZM241.083 294.832C241.067 294.827 241.05 294.819 241.029 294.819H228.438L234.05 298.743L241.083 294.832ZM217.621 326.059L213.26 343.382C222.127 342.077 228.778 337.313 234.17 332.445L217.621 326.059ZM246.005 341.27C245.756 341.27 245.502 341.183 245.299 341.004L236.502 333.193C232.636 336.781 228.122 340.426 222.564 342.883L246.022 341.291C246.159 341.283 246.288 341.241 246.409 341.187C246.28 341.241 246.143 341.27 246.005 341.27ZM238.04 331.713L246.712 339.412C246.895 339.574 246.991 339.786 247.032 340.006L248.824 316.544C246.043 322.572 241.956 327.523 238.04 331.713Z" fill="white"/>
</g>
<circle cx="121.189" cy="62.5603" r="8.84131" fill="#05C168"/>
<circle cx="152.398" cy="269.574" r="8.84131" fill="#FDB52A"/>
<circle cx="423.908" cy="316.386" r="8.84131" fill="#4F80FF"/>
<circle cx="518.574" cy="104.171" r="8.84131" fill="#A174FF"/>
</g>
</g>
</g>
<defs>
<filter id="filter0_i_3477_16811" x="125.871" y="-9.73706" width="368.256" height="368.255" filterUnits="userSpaceOnUse" color-interpolation-filters="sRGB">
<feFlood flood-opacity="0" result="BackgroundImageFix"/>
<feBlend mode="normal" in="SourceGraphic" in2="BackgroundImageFix" result="shape"/>
<feColorMatrix in="SourceAlpha" type="matrix" values="0 0 0 0 0 0 0 0 0 0 0 0 0 0 0 0 0 0 127 0" result="hardAlpha"/>
<feMorphology radius="25.7131" operator="erode" in="SourceAlpha" result="effect1_innerShadow_3477_16811"/>
<feOffset/>
<feGaussianBlur stdDeviation="23.1418"/>
<feComposite in2="hardAlpha" operator="arithmetic" k2="-1" k3="1"/>
<feColorMatrix type="matrix" values="0 0 0 0 0 0 0 0 0 0 0 0 0 0 0 0 0 0 0.16 0"/>
<feBlend mode="normal" in2="shape" result="effect1_innerShadow_3477_16811"/>
</filter>
<filter id="filter1_f_3477_16811" x="407.712" y="15.156" width="67.7627" height="67.7634" filterUnits="userSpaceOnUse" color-interpolation-filters="sRGB">
<feFlood flood-opacity="0" result="BackgroundImageFix"/>
<feBlend mode="normal" in="SourceGraphic" in2="BackgroundImageFix" result="shape"/>
<feGaussianBlur stdDeviation="1.59692" result="effect1_foregroundBlur_3477_16811"/>
</filter>
<filter id="filter2_f_3477_16811" x="178.654" y="272.943" width="92.0885" height="92.0883" filterUnits="userSpaceOnUse" color-interpolation-filters="sRGB">
<feFlood flood-opacity="0" result="BackgroundImageFix"/>
<feBlend mode="normal" in="SourceGraphic" in2="BackgroundImageFix" result="shape"/>
<feGaussianBlur stdDeviation="3.25699" result="effect1_foregroundBlur_3477_16811"/>
</filter>
<clipPath id="clip0_3477_16811">
<rect width="620" height="350" fill="white"/>
</clipPath>
<clipPath id="clip1_3477_16811">
<rect width="52.4656" height="19.5916" fill="white" transform="translate(90.416 157.652)"/>
</clipPath>
</defs>
</svg>
