<svg width="620" height="350" viewBox="0 0 620 350" fill="none" xmlns="http://www.w3.org/2000/svg">
<g clip-path="url(#clip0_3477_16813)">
<mask id="mask0_3477_16813" style="mask-type:alpha" maskUnits="userSpaceOnUse" x="0" y="0" width="620" height="350">
<path d="M0 0H620V350H0V0Z" fill="#0D0D0E"/>
</mask>
<g mask="url(#mask0_3477_16813)">
<path d="M0 29.502C0 12.9334 13.4315 -0.498047 30 -0.498047H590C606.569 -0.498047 620 12.9334 620 29.502V278.996C620 295.565 606.569 308.996 590 308.996H30C13.4315 308.996 0 295.565 0 278.996V29.502Z" fill="#0D0D0E"/>
<rect width="620" height="351.611" fill="#212123"/>
<mask id="mask1_3477_16813" style="mask-type:alpha" maskUnits="userSpaceOnUse" x="0" y="0" width="620" height="352">
<rect width="620" height="351.611" fill="#212123"/>
</mask>
<g mask="url(#mask1_3477_16813)">
<rect x="0.805633" y="0.735122" width="236.682" height="307.159" rx="15.685" transform="matrix(0.998942 -0.0459869 0.0454454 0.998967 89.4303 86.1413)" fill="#2D2D2F" stroke="#3A3A3C" stroke-width="1.54279"/>
<rect width="132.116" height="6.27869" rx="3.13934" transform="matrix(0.998942 -0.0459869 0.0454454 0.998967 171.795 145.95)" fill="#424244"/>
<rect width="106.109" height="6.27869" rx="3.13934" transform="matrix(0.998942 -0.0459869 0.0454454 0.998967 155.723 109.211)" fill="#5E5E60" fill-opacity="0.45"/>
<rect width="47.853" height="6.27869" rx="3.13934" transform="matrix(0.998942 -0.0459869 0.0454454 0.998967 172.938 171.039)" fill="#5E5E60"/>
<rect width="47.853" height="6.27869" rx="3.13934" transform="matrix(0.998942 -0.0459869 0.0454454 0.998967 233.672 168.242)" fill="#424244"/>
<rect width="58.2558" height="6.27869" rx="3.13934" transform="matrix(0.998942 -0.0459869 0.0454454 0.998967 118.582 199.729)" fill="#424244"/>
<rect width="113.391" height="6.27869" rx="3.13934" transform="matrix(0.998942 -0.0459869 0.0454454 0.998967 186.594 196.599)" fill="#5E5E60"/>
<rect width="152.921" height="6.27869" rx="3.13934" transform="matrix(0.998942 -0.0459869 0.0454454 0.998967 119.771 225.863)" fill="#424244"/>
<rect width="188.291" height="99.4125" rx="10.2852" transform="matrix(0.998942 -0.0459869 0.0454454 0.998967 121.428 251.977)" fill="white" fill-opacity="0.05"/>
<path d="M228.281 270.103C237.438 269.682 243.884 275.862 244.322 285.48L245.331 307.676C245.769 317.294 239.911 324.041 230.751 324.463L207.335 325.541C198.178 325.962 191.732 319.782 191.294 310.164L190.284 287.968C189.847 278.35 195.705 271.603 204.862 271.181L228.281 270.103ZM232.565 298.641C229.586 296.956 227.466 299.612 226.9 300.456C226.354 301.271 225.894 302.163 225.407 303.057C224.216 305.262 222.854 307.804 220.365 309.361C216.748 311.599 213.844 309.824 211.754 308.531C210.97 308.05 210.208 307.596 209.457 307.305C207.607 306.6 206.014 307.573 203.732 310.781C202.534 312.458 201.346 314.121 200.142 315.778C199.422 316.77 199.671 318.237 200.73 318.829C202.42 319.771 204.45 320.226 206.716 320.122L229.487 319.073C230.772 319.014 232.052 318.778 233.261 318.318C235.986 317.282 238.086 315.099 239.108 312.298C239.97 309.942 240.312 307.116 239.302 304.824C238.965 304.063 238.481 303.363 237.819 302.758C236.084 301.177 234.462 299.7 232.565 298.641ZM207.606 281.95C203.881 282.121 200.993 285.309 201.164 289.055C201.334 292.801 204.5 295.711 208.225 295.539C211.947 295.368 214.838 292.18 214.667 288.434C214.497 284.688 211.329 281.778 207.606 281.95Z" fill="white" fill-opacity="0.15"/>
<path d="M130.434 176.393L127.671 184.91L117.931 185.358L132.825 140.675L142.935 140.21L161.577 183.349L151.775 183.8L148.373 175.567L130.434 176.393ZM132.662 168.336L145.361 167.752L138.25 149.933L132.662 168.336Z" fill="#05C168"/>
<g filter="url(#filter0_d_3477_16813)">
<rect x="0.728231" y="0.81274" width="258.487" height="335.412" rx="15.685" transform="matrix(0.998482 0.055083 -0.054435 0.998517 270.75 40.8131)" fill="#2D2D2F" stroke="#3A3A3C" stroke-width="1.54279"/>
<rect width="144.208" height="7.3251" rx="3.66255" transform="matrix(0.998482 0.055083 -0.054435 0.998517 351.236 86.458)" fill="#424244"/>
<rect width="71.7798" height="7.3251" rx="3.66255" transform="matrix(0.998482 0.055083 -0.054435 0.998517 350.082 113.643)" fill="#424244"/>
<rect width="75.941" height="7.3251" rx="3.66255" transform="matrix(0.998482 0.055083 -0.054435 0.998517 433.18 118.228)" fill="#1F78FF"/>
<rect width="73.8604" height="7.3251" rx="3.66255" transform="matrix(0.998482 0.055083 -0.054435 0.998517 291.359 139.749)" fill="#5E5E60"/>
<rect width="115.472" height="7.3251" rx="3.66255" transform="matrix(0.998482 0.055083 -0.054435 0.998517 376.535 144.448)" fill="#424244"/>
<rect width="166.918" height="7.3251" rx="3.66255" transform="matrix(0.998482 0.055083 -0.054435 0.998517 290.047 165.877)" fill="#424244"/>
<rect width="205.977" height="136.037" rx="10.2852" transform="matrix(0.998482 0.055083 -0.054435 0.998517 287.895 199.006)" fill="white" fill-opacity="0.05"/>
<rect width="74.1124" height="7.71216" rx="3.85608" transform="matrix(0.998482 0.055083 -0.054435 0.998517 314.232 231.897)" fill="#FFD600"/>
<rect width="96.6173" height="7.67281" rx="3.8364" transform="matrix(0.998482 0.055083 -0.054435 0.998517 312.424 265.097)" fill="#FF4264"/>
<path d="M423.91 275.233C424.045 272.751 424.546 270.336 425.413 267.987C426.299 265.621 427.543 263.47 429.144 261.533L433.646 261.781C432.672 262.712 431.859 263.726 431.209 264.824C430.577 265.903 430.017 267.034 429.528 268.214C429.057 269.396 428.677 270.601 428.389 271.83C428.101 273.04 427.925 274.247 427.859 275.451C427.793 276.655 427.837 277.883 427.991 279.137C428.144 280.39 428.39 281.629 428.73 282.856C429.088 284.064 429.523 285.24 430.033 286.383C430.561 287.545 431.258 288.643 432.125 289.675L427.623 289.427C426.242 287.326 425.239 285.06 424.614 282.629C424.009 280.18 423.774 277.715 423.91 275.233Z" fill="#FF4264"/>
<path d="M446.984 276.506C446.849 278.988 446.338 281.412 445.452 283.778C444.585 286.127 443.351 288.27 441.749 290.206L437.248 289.958C438.222 289.027 439.025 288.012 439.657 286.914C440.307 285.835 440.867 284.714 441.337 283.551C441.826 282.371 442.214 281.166 442.503 279.937C442.792 278.708 442.969 277.492 443.034 276.288C443.1 275.084 443.056 273.865 442.901 272.63C442.748 271.377 442.493 270.137 442.135 268.91C441.795 267.683 441.361 266.498 440.833 265.355C440.323 264.193 439.635 263.096 438.768 262.064L443.27 262.312C444.651 264.413 445.645 266.688 446.25 269.137C446.874 271.568 447.119 274.024 446.984 276.506Z" fill="#FF4264"/>
<path d="M404.26 240.965C404.582 241.093 404.836 241.298 405.021 241.582C405.225 241.849 405.373 242.15 405.465 242.483C405.574 242.818 405.638 243.159 405.655 243.507C405.691 243.856 405.702 244.167 405.687 244.44L405.428 249.192C405.411 249.501 405.423 249.776 405.465 250.015C405.506 250.273 405.595 250.479 405.733 250.633C405.939 250.863 406.315 250.994 406.862 251.024L408.527 251.116L408.355 254.283L405.214 254.11C404.013 254.044 403.117 253.739 402.525 253.195C402.231 252.905 402.014 252.527 401.875 252.063C401.736 251.599 401.683 251.058 401.717 250.439L402.012 245.032C402.022 244.85 402.026 244.613 402.023 244.32C402.022 244.01 401.974 243.715 401.88 243.436C401.785 243.157 401.616 242.91 401.372 242.696C401.147 242.483 400.806 242.363 400.351 242.338L399.45 242.289L399.623 239.121L400.524 239.171C400.979 239.196 401.33 239.124 401.576 238.955C401.842 238.769 402.037 238.542 402.161 238.275C402.285 238.008 402.364 237.729 402.398 237.439C402.434 237.131 402.457 236.876 402.467 236.676L402.762 231.269C402.796 230.65 402.907 230.127 403.094 229.699C403.283 229.253 403.539 228.902 403.864 228.646C404.188 228.39 404.581 228.22 405.042 228.136C405.504 228.033 406.035 227.999 406.636 228.032L409.776 228.205L409.604 231.373L407.938 231.281C407.392 231.251 407.004 231.339 406.773 231.545C406.621 231.665 406.51 231.85 406.442 232.102C406.374 232.336 406.332 232.607 406.315 232.917L406.054 237.695C406.04 237.969 405.995 238.277 405.922 238.619C405.867 238.963 405.766 239.296 405.621 239.616C405.494 239.938 405.314 240.22 405.082 240.463C404.868 240.707 404.594 240.874 404.26 240.965Z" fill="#1F78FF"/>
<path d="M316.271 306.552C315.949 306.425 315.686 306.227 315.482 305.961C315.295 305.695 315.156 305.395 315.065 305.061C314.974 304.727 314.91 304.386 314.874 304.037C314.857 303.689 314.856 303.379 314.87 303.106L315.131 298.327C315.148 298.018 315.126 297.742 315.066 297.502C315.026 297.244 314.936 297.047 314.797 296.912C314.591 296.681 314.214 296.551 313.668 296.521L312.003 296.429L312.175 293.261L315.316 293.435C315.916 293.468 316.441 293.56 316.889 293.713C317.338 293.847 317.71 294.06 318.004 294.35C318.299 294.64 318.516 295.017 318.655 295.481C318.795 295.927 318.848 296.46 318.814 297.079L318.519 302.485C318.509 302.686 318.504 302.941 318.505 303.251C318.507 303.544 318.556 303.829 318.65 304.109C318.744 304.388 318.904 304.634 319.13 304.847C319.375 305.043 319.725 305.154 320.18 305.179L321.081 305.229L320.909 308.396L320.008 308.347C319.552 308.321 319.192 308.402 318.926 308.588C318.679 308.775 318.493 309.002 318.369 309.27C318.245 309.537 318.165 309.824 318.13 310.133C318.096 310.423 318.074 310.659 318.064 310.841L317.769 316.248C317.703 317.468 317.335 318.351 316.666 318.899C316.019 319.374 315.095 319.579 313.894 319.513L310.754 319.339L310.926 316.172L312.592 316.264C313.138 316.294 313.526 316.206 313.757 315.999C314.045 315.741 314.207 315.276 314.244 314.602L314.503 309.851C314.518 309.577 314.553 309.269 314.608 308.925C314.681 308.582 314.782 308.25 314.909 307.928C315.036 307.607 315.206 307.324 315.421 307.08C315.654 306.819 315.937 306.643 316.271 306.552Z" fill="#1F78FF"/>
<path d="M458.595 267.837C459.331 267.878 459.899 268.141 460.297 268.628C460.696 269.096 460.876 269.7 460.835 270.441C460.794 271.2 460.541 271.781 460.076 272.182C459.63 272.567 459.048 272.739 458.33 272.699C457.575 272.658 456.988 272.421 456.568 271.989C456.167 271.558 455.987 270.954 456.03 270.176C456.07 269.435 456.314 268.854 456.762 268.433C457.229 267.994 457.84 267.796 458.595 267.837ZM457.37 282.678C456.71 282.605 456.188 282.344 455.806 281.895C455.443 281.448 455.28 280.882 455.317 280.196C455.36 279.418 455.631 278.839 456.132 278.458C456.652 278.078 457.27 277.908 457.988 277.947C458.486 277.975 458.895 278.09 459.216 278.294C459.556 278.498 459.818 278.763 460.004 279.089C460.209 279.398 460.346 279.758 460.416 280.171C460.505 280.566 460.538 280.977 460.515 281.403C460.48 282.032 460.326 282.655 460.053 283.272C459.779 283.889 459.434 284.455 459.018 284.971C458.601 285.505 458.115 285.961 457.559 286.339C457.02 286.737 456.45 287.021 455.85 287.192L454.932 285.748C455.505 285.39 456.009 284.953 456.443 284.438C456.878 283.924 457.187 283.337 457.37 282.678Z" fill="#FF4264"/>
<path d="M320.392 76.0821C323.529 76.2551 326.353 76.7563 328.864 77.5856C331.377 78.3657 333.476 79.5424 335.16 81.1156C336.895 82.6422 338.164 84.6119 338.967 87.0246C339.821 89.3908 340.131 92.2698 339.897 95.6615C339.687 98.6105 339.029 101.214 337.923 103.472C336.819 105.681 335.342 107.524 333.492 109.001C331.694 110.431 329.546 111.497 327.05 112.198C324.606 112.853 321.963 113.102 319.12 112.945L309.049 112.389L308.208 127.812L297.548 127.224L300.396 74.979L320.392 76.0821ZM319.047 103.467C320.37 103.54 321.629 103.437 322.824 103.157C324.068 102.88 325.151 102.397 326.074 101.708C326.996 101.019 327.756 100.148 328.355 99.0955C328.953 98.043 329.316 96.7801 329.446 95.307C329.726 91.9672 328.948 89.5558 327.112 88.073C325.325 86.5928 322.936 85.7702 319.947 85.6053L310.537 85.0862L309.564 102.944L319.047 103.467Z" fill="#FFD600"/>
</g>
</g>
</g>
</g>
<defs>
<filter id="filter0_d_3477_16813" x="217.236" y="19.1054" width="329.718" height="402.499" filterUnits="userSpaceOnUse" color-interpolation-filters="sRGB">
<feFlood flood-opacity="0" result="BackgroundImageFix"/>
<feColorMatrix in="SourceAlpha" type="matrix" values="0 0 0 0 0 0 0 0 0 0 0 0 0 0 0 0 0 0 127 0" result="hardAlpha"/>
<feOffset dx="-9.25671" dy="4.11409"/>
<feGaussianBlur stdDeviation="13.3708"/>
<feComposite in2="hardAlpha" operator="out"/>
<feColorMatrix type="matrix" values="0 0 0 0 0 0 0 0 0 0 0 0 0 0 0 0 0 0 0.21 0"/>
<feBlend mode="normal" in2="BackgroundImageFix" result="effect1_dropShadow_3477_16813"/>
<feBlend mode="normal" in="SourceGraphic" in2="effect1_dropShadow_3477_16813" result="shape"/>
</filter>
<clipPath id="clip0_3477_16813">
<rect width="620" height="350" fill="white"/>
</clipPath>
</defs>
</svg>
