<svg width="620" height="350" viewBox="0 0 620 350" fill="none" xmlns="http://www.w3.org/2000/svg">
<g clip-path="url(#clip0_3477_16812)">
<mask id="mask0_3477_16812" style="mask-type:alpha" maskUnits="userSpaceOnUse" x="0" y="0" width="620" height="350">
<path d="M0 0H620V350H0V0Z" fill="#0D0D0E"/>
</mask>
<g mask="url(#mask0_3477_16812)">
<path d="M0 29.5022C0 12.9337 13.4315 -0.497803 30 -0.497803H590C606.569 -0.497803 620 12.9337 620 29.5022V278.996C620 295.565 606.569 308.997 590 308.997H30C13.4315 308.997 0 295.565 0 278.997V29.5022Z" fill="#0D0D0E"/>
<rect width="620" height="349.53" fill="#212123"/>
<mask id="mask1_3477_16812" style="mask-type:alpha" maskUnits="userSpaceOnUse" x="0" y="0" width="620" height="350">
<rect width="620" height="349.53" fill="#212123"/>
</mask>
<g mask="url(#mask1_3477_16812)">
<rect x="120.402" y="34.7257" width="380.236" height="275.169" rx="15.685" fill="#2D2D2F" stroke="#3A3A3C" stroke-width="1.54279"/>
<circle cx="146.678" cy="56.8403" r="5.20134" fill="#FE5F57"/>
<circle cx="163.322" cy="56.8403" r="5.20134" fill="#FDBD2D"/>
<circle cx="179.965" cy="56.8403" r="5.20134" fill="#26C840"/>
<path d="M119.631 78.6855H213.255V310.665H137.116C127.459 310.665 119.631 302.837 119.631 293.181V78.6855Z" fill="#464648"/>
<rect x="119.631" y="152.545" width="381.779" height="78.7136" fill="black" fill-opacity="0.13"/>
<path d="M170.572 136.451H164.071V113.251H157.659V108.798C158.609 108.798 159.485 108.724 160.286 108.576C161.117 108.398 161.889 108.13 162.602 107.774C163.225 107.448 163.819 107.047 164.383 106.572C164.947 106.067 165.392 105.518 165.719 104.924H170.572V136.451Z" fill="#989898"/>
<path d="M163.444 193.592C164.156 192.998 164.868 192.36 165.581 191.677C166.323 190.994 167.036 190.282 167.718 189.54C168.401 188.857 168.98 188.115 169.455 187.313C169.96 186.512 170.227 185.621 170.256 184.641C170.316 183.068 169.9 181.895 169.01 181.124C168.119 180.352 166.932 179.981 165.447 180.01C164.112 180.04 163.028 180.352 162.197 180.945C161.395 181.539 160.92 182.4 160.772 183.528H154.76C154.82 181.777 155.235 180.263 156.007 178.986C156.809 177.68 157.863 176.641 159.169 175.869C160.119 175.305 161.158 174.904 162.286 174.667C163.414 174.4 164.601 174.266 165.848 174.266C169.203 174.207 171.845 175.097 173.774 176.938C174.605 177.71 175.273 178.675 175.778 179.832C176.283 180.96 176.535 182.296 176.535 183.84C176.535 184.968 176.416 186.037 176.179 187.046C175.941 188.055 175.541 188.99 174.976 189.851C174.62 190.445 174.234 190.994 173.819 191.499C173.433 191.974 173.032 192.419 172.616 192.835C172.231 193.25 171.8 193.666 171.325 194.081C170.88 194.497 170.375 194.957 169.811 195.462C168.713 196.412 167.659 197.287 166.65 198.089C165.67 198.891 164.735 199.677 163.844 200.449H176.179V206.149H154.983V200.894L163.444 193.592Z" fill="#989898"/>
<path d="M153.705 262.589C153.853 260.986 154.224 259.62 154.818 258.492C155.412 257.364 156.198 256.399 157.178 255.598C158.187 254.796 159.345 254.217 160.651 253.861C161.987 253.475 163.486 253.282 165.148 253.282C166.484 253.282 167.746 253.431 168.933 253.728C170.15 253.995 171.249 254.455 172.228 255.108C173.238 255.761 174.039 256.622 174.633 257.691C175.256 258.759 175.568 260.065 175.568 261.609C175.568 262.915 175.242 264.162 174.588 265.349C173.935 266.537 172.985 267.472 171.739 268.155C173.549 268.748 174.856 269.743 175.657 271.138C176.459 272.533 176.83 274.166 176.77 276.036C176.711 277.758 176.34 279.213 175.657 280.4C174.974 281.588 174.099 282.567 173.03 283.339C171.961 284.081 170.729 284.63 169.334 284.987C167.939 285.343 166.484 285.521 164.97 285.521C161.616 285.521 158.87 284.764 156.733 283.25C154.595 281.736 153.289 279.331 152.814 276.036H159.182C159.389 276.778 159.686 277.387 160.072 277.862C160.488 278.337 160.948 278.723 161.453 279.02C161.987 279.287 162.551 279.48 163.145 279.599C163.738 279.688 164.347 279.732 164.97 279.732C165.683 279.732 166.366 279.658 167.019 279.51C167.672 279.361 168.251 279.124 168.755 278.797C169.26 278.471 169.661 278.04 169.958 277.506C170.254 276.942 170.403 276.259 170.403 275.457C170.403 274.864 170.269 274.315 170.002 273.81C169.765 273.305 169.438 272.934 169.022 272.697C168.488 272.34 167.894 272.118 167.241 272.029C166.618 271.91 165.965 271.851 165.282 271.851H162.12V266.596H164.258C165.03 266.596 165.727 266.507 166.351 266.329C166.974 266.121 167.538 265.81 168.043 265.394C168.399 265.067 168.696 264.696 168.933 264.281C169.171 263.835 169.29 263.316 169.29 262.722C169.29 262.01 169.171 261.416 168.933 260.941C168.696 260.436 168.369 260.051 167.954 259.783C167.538 259.487 167.048 259.279 166.484 259.16C165.92 259.041 165.327 258.982 164.703 258.982C163.575 258.982 162.581 259.279 161.72 259.872C160.859 260.436 160.295 261.342 160.028 262.589H153.705Z" fill="#989898"/>
<line x1="119.631" y1="77.9142" x2="501.409" y2="77.9142" stroke="#3A3A3C" stroke-width="1.54279"/>
<rect x="230.939" y="109.894" width="120.671" height="12.4832" rx="6.24161" fill="#7D42FB"/>
<rect x="230.939" y="185.833" width="87.3826" height="12.4832" rx="6.24161" fill="#FDB52A"/>
<path d="M332.887 191.798C332.887 187.774 333.487 183.826 334.688 179.953C335.919 176.05 337.751 172.462 340.183 169.189H347.524C346.023 170.78 344.792 172.492 343.831 174.323C342.9 176.125 342.089 178.001 341.399 179.953C340.738 181.904 340.228 183.886 339.867 185.898C339.507 187.879 339.327 189.846 339.327 191.798C339.327 193.749 339.507 195.731 339.867 197.742C340.228 199.754 340.738 201.736 341.399 203.687C342.089 205.609 342.9 207.47 343.831 209.272C344.792 211.103 346.023 212.815 347.524 214.406H340.183C337.751 211.134 335.919 207.561 334.688 203.687C333.487 199.784 332.887 195.821 332.887 191.798Z" fill="#FFAA2A"/>
<path d="M370.514 191.798C370.514 195.821 369.898 199.784 368.667 203.687C367.466 207.561 365.65 211.134 363.218 214.406H355.877C357.378 212.815 358.594 211.103 359.525 209.272C360.486 207.47 361.296 205.609 361.957 203.687C362.647 201.736 363.173 199.754 363.533 197.742C363.893 195.731 364.073 193.749 364.073 191.798C364.073 189.846 363.893 187.879 363.533 185.898C363.173 183.886 362.647 181.904 361.957 179.953C361.296 178.001 360.486 176.125 359.525 174.323C358.594 172.492 357.378 170.78 355.877 169.189H363.218C365.65 172.462 367.466 176.05 368.667 179.953C369.898 183.826 370.514 187.774 370.514 191.798Z" fill="#FFAA2A"/>
<path d="M374.99 116.539C375.525 116.717 375.955 117.029 376.282 117.474C376.638 117.89 376.905 118.365 377.083 118.899C377.291 119.433 377.425 119.982 377.484 120.547C377.573 121.111 377.618 121.615 377.618 122.06V129.808C377.618 130.313 377.662 130.758 377.751 131.144C377.84 131.56 378.004 131.886 378.241 132.124C378.597 132.48 379.221 132.658 380.111 132.658H382.828V137.824H377.707C375.747 137.824 374.263 137.408 373.254 136.577C372.749 136.132 372.363 135.538 372.096 134.796C371.829 134.054 371.695 133.178 371.695 132.168V123.352C371.695 123.055 371.681 122.669 371.651 122.194C371.621 121.689 371.517 121.214 371.339 120.769C371.161 120.324 370.864 119.938 370.449 119.611C370.063 119.285 369.499 119.122 368.756 119.122H367.287V113.956H368.756C369.499 113.956 370.063 113.808 370.449 113.511C370.864 113.184 371.161 112.799 371.339 112.353C371.517 111.908 371.621 111.448 371.651 110.973C371.681 110.468 371.695 110.053 371.695 109.726V100.909C371.695 99.9001 371.829 99.0392 372.096 98.3267C372.363 97.5846 372.749 96.9909 373.254 96.5456C373.759 96.1003 374.382 95.7886 375.124 95.6105C375.866 95.4027 376.727 95.2988 377.707 95.2988H382.828V100.464H380.111C379.221 100.464 378.597 100.642 378.241 100.998C378.004 101.206 377.84 101.518 377.751 101.934C377.662 102.319 377.618 102.765 377.618 103.269V111.062C377.618 111.507 377.573 112.012 377.484 112.576C377.425 113.14 377.291 113.689 377.083 114.223C376.905 114.758 376.638 115.233 376.282 115.648C375.955 116.064 375.525 116.361 374.99 116.539Z" fill="#1F78FF"/>
<path d="M240.869 271.539C240.335 271.361 239.89 271.064 239.533 270.648C239.207 270.233 238.955 269.758 238.776 269.223C238.598 268.689 238.465 268.14 238.376 267.576C238.316 267.012 238.287 266.507 238.287 266.062V258.269C238.287 257.765 238.227 257.319 238.109 256.934C238.02 256.518 237.856 256.206 237.619 255.998C237.263 255.642 236.639 255.464 235.749 255.464H233.032V250.299H238.153C239.133 250.299 239.994 250.403 240.736 250.61C241.478 250.789 242.101 251.1 242.606 251.546C243.111 251.991 243.497 252.585 243.764 253.327C244.031 254.039 244.164 254.9 244.164 255.909V264.726C244.164 265.053 244.179 265.468 244.209 265.973C244.239 266.448 244.343 266.908 244.521 267.353C244.699 267.799 244.981 268.184 245.367 268.511C245.782 268.808 246.361 268.956 247.103 268.956H248.573V274.122H247.103C246.361 274.122 245.782 274.285 245.367 274.611C244.981 274.938 244.699 275.324 244.521 275.769C244.343 276.214 244.239 276.689 244.209 277.194C244.179 277.669 244.164 278.055 244.164 278.352V287.168C244.164 289.157 243.645 290.627 242.606 291.577C241.597 292.408 240.112 292.824 238.153 292.824H233.032V287.658H235.749C236.639 287.658 237.263 287.48 237.619 287.124C238.064 286.679 238.287 285.907 238.287 284.808V277.06C238.287 276.615 238.316 276.111 238.376 275.547C238.465 274.982 238.598 274.433 238.776 273.899C238.955 273.365 239.207 272.89 239.533 272.474C239.89 272.029 240.335 271.717 240.869 271.539Z" fill="#1F78FF"/>
<path d="M388.624 176.753C389.825 176.753 390.771 177.128 391.462 177.879C392.152 178.599 392.498 179.56 392.498 180.761C392.498 181.992 392.137 182.953 391.417 183.643C390.726 184.304 389.795 184.634 388.624 184.634C387.393 184.634 386.418 184.304 385.697 183.643C385.006 182.983 384.661 182.022 384.661 180.761C384.661 179.56 385.006 178.599 385.697 177.879C386.418 177.128 387.393 176.753 388.624 176.753ZM387.949 200.848C386.868 200.787 385.997 200.412 385.337 199.722C384.706 199.031 384.391 198.13 384.391 197.019C384.391 195.758 384.781 194.798 385.562 194.137C386.373 193.476 387.363 193.146 388.534 193.146C389.345 193.146 390.021 193.296 390.561 193.597C391.132 193.897 391.582 194.302 391.912 194.813C392.272 195.293 392.528 195.863 392.678 196.524C392.858 197.154 392.948 197.815 392.948 198.506C392.948 199.526 392.753 200.547 392.363 201.568C391.972 202.589 391.462 203.535 390.831 204.405C390.201 205.306 389.45 206.087 388.579 206.747C387.739 207.438 386.838 207.948 385.877 208.279L384.256 206.027C385.157 205.396 385.937 204.646 386.598 203.775C387.258 202.904 387.709 201.928 387.949 200.848Z" fill="#FDB52A"/>
<g filter="url(#filter0_d_3477_16812)">
<rect x="452.461" y="221.792" width="118.681" height="43.1007" rx="20.2157" fill="#FF4264"/>
</g>
<g filter="url(#filter1_d_3477_16812)">
<path d="M438.518 221.531L435.991 193.39C435.944 192.87 436.527 192.534 436.954 192.833L460.302 209.227C460.778 209.561 460.564 210.308 459.983 210.34L447.612 211.014C447.426 211.024 447.255 211.119 447.147 211.271L439.627 221.832C439.297 222.296 438.568 222.098 438.518 221.531Z" fill="#FF4264"/>
<path d="M434.455 193.528L436.981 221.669C437.16 223.663 439.723 224.358 440.884 222.727L448.144 212.53L460.067 211.881C462.111 211.769 462.863 209.14 461.189 207.964L437.84 191.571C436.339 190.517 434.29 191.7 434.455 193.528ZM447.696 212.555L447.698 212.555C447.698 212.555 447.697 212.555 447.696 212.555L447.646 211.626L447.696 212.555Z" stroke="white" stroke-width="3.08557"/>
</g>
</g>
</g>
</g>
<defs>
<filter id="filter0_d_3477_16812" x="445.891" y="218.255" width="131.822" height="56.2411" filterUnits="userSpaceOnUse" color-interpolation-filters="sRGB">
<feFlood flood-opacity="0" result="BackgroundImageFix"/>
<feColorMatrix in="SourceAlpha" type="matrix" values="0 0 0 0 0 0 0 0 0 0 0 0 0 0 0 0 0 0 127 0" result="hardAlpha"/>
<feOffset dy="3.03236"/>
<feGaussianBlur stdDeviation="3.28506"/>
<feComposite in2="hardAlpha" operator="out"/>
<feColorMatrix type="matrix" values="0 0 0 0 0 0 0 0 0 0 0 0 0 0 0 0 0 0 0.35 0"/>
<feBlend mode="normal" in2="BackgroundImageFix" result="effect1_dropShadow_3477_16812"/>
<feBlend mode="normal" in="SourceGraphic" in2="effect1_dropShadow_3477_16812" result="shape"/>
</filter>
<filter id="filter1_d_3477_16812" x="428.091" y="187.037" width="40.375" height="45.1748" filterUnits="userSpaceOnUse" color-interpolation-filters="sRGB">
<feFlood flood-opacity="0" result="BackgroundImageFix"/>
<feColorMatrix in="SourceAlpha" type="matrix" values="0 0 0 0 0 0 0 0 0 0 0 0 0 0 0 0 0 0 127 0" result="hardAlpha"/>
<feOffset dy="2.2207"/>
<feGaussianBlur stdDeviation="2.40576"/>
<feComposite in2="hardAlpha" operator="out"/>
<feColorMatrix type="matrix" values="0 0 0 0 0 0 0 0 0 0 0 0 0 0 0 0 0 0 0.35 0"/>
<feBlend mode="normal" in2="BackgroundImageFix" result="effect1_dropShadow_3477_16812"/>
<feBlend mode="normal" in="SourceGraphic" in2="effect1_dropShadow_3477_16812" result="shape"/>
</filter>
<clipPath id="clip0_3477_16812">
<rect width="620" height="350" fill="white"/>
</clipPath>
</defs>
</svg>
