<svg width="60" height="60" viewBox="0 0 60 60" fill="none" xmlns="http://www.w3.org/2000/svg">
<path opacity="0.2" d="M30 60C46.5685 60 60 46.5685 60 30C60 13.4315 46.5685 0 30 0C13.4315 0 0 13.4315 0 30C0 46.5685 13.4315 60 30 60Z" fill="#FF6871"/>
<path d="M29.6904 19.4704C26.2119 15.9252 20.5597 15.9252 17.0812 19.4704C13.6188 22.9992 13.6188 28.7084 17.0812 32.2372L27.7853 43.1465C29.0017 44.3863 30.9988 44.3863 32.2153 43.1465L42.9194 32.2372C46.3818 28.7084 46.3818 22.9992 42.9194 19.4704C39.4409 15.9252 33.7887 15.9252 30.3102 19.4704C30.14 19.6439 29.8606 19.6439 29.6904 19.4704Z" fill="#FF6871"/>
</svg>
