<svg width="26" height="26" viewBox="0 0 26 26" fill="none" xmlns="http://www.w3.org/2000/svg">
<g clip-path="url(#clip0_6_955)">
<path d="M9.37796 20.9052C9.19719 20.9388 9.11822 21.0237 9.14087 21.159C9.1634 21.2943 9.26496 21.3396 9.44549 21.2943C9.62626 21.2493 9.70518 21.1701 9.68247 21.0574C9.66006 20.9333 9.5585 20.8825 9.37796 20.9052Z" fill="#D3D3D3"/>
<path d="M8.4128 21.0409C8.2322 21.0409 8.14197 21.1026 8.14197 21.227C8.14197 21.3737 8.23796 21.4356 8.42969 21.4131C8.61028 21.4131 8.70064 21.351 8.70064 21.227C8.70064 21.0805 8.60465 21.0182 8.4128 21.0409Z" fill="#D3D3D3"/>
<path d="M7.09232 20.9898C7.04726 21.114 7.12066 21.1984 7.31234 21.2438C7.48161 21.3112 7.58886 21.2775 7.63392 21.1422C7.66783 21.0182 7.59444 20.9281 7.4139 20.8713C7.24458 20.8263 7.13744 20.8653 7.09232 20.9898Z" fill="#D3D3D3"/>
<path d="M24.5696 1.43021C23.616 0.476796 22.4681 0 21.1249 0H4.87497C3.53221 0 2.38386 0.476796 1.43021 1.43021C0.476795 2.3838 0 3.53215 0 4.87497V21.1251C0 22.468 0.476795 23.6163 1.43021 24.5697C2.3838 25.5233 3.53221 26.0001 4.87497 26.0001H8.66663C8.91469 26.0001 9.10103 25.9915 9.22512 25.9749C9.34915 25.9578 9.47318 25.8844 9.59739 25.7545C9.72166 25.6249 9.78356 25.4358 9.78356 25.1876C9.78356 25.154 9.78059 24.7699 9.77502 24.0364C9.76927 23.3027 9.76648 22.7217 9.76648 22.2928L9.37714 22.3605C9.1289 22.4056 8.81574 22.4255 8.43766 22.4198C8.05975 22.4141 7.6675 22.3747 7.26132 22.3013C6.8549 22.2278 6.477 22.0586 6.12714 21.7937C5.77745 21.5282 5.52922 21.1814 5.38248 20.7526L5.21315 20.3631C5.10032 20.1038 4.9227 19.8159 4.68003 19.5002C4.43736 19.1841 4.19197 18.9696 3.94373 18.8568L3.82521 18.7721C3.7463 18.7157 3.67296 18.6477 3.6052 18.5688C3.53755 18.4897 3.4868 18.4106 3.45294 18.3318C3.41909 18.2527 3.44719 18.1878 3.53755 18.1368C3.6279 18.0862 3.79136 18.061 4.02845 18.061L4.36687 18.1117C4.59264 18.1568 4.87177 18.2921 5.20485 18.5179C5.53769 18.7435 5.81131 19.0369 6.02575 19.3979C6.28544 19.8607 6.5983 20.2131 6.96523 20.4558C7.33187 20.6987 7.70153 20.82 8.07386 20.82C8.44619 20.82 8.76777 20.7918 9.03872 20.7356C9.30937 20.679 9.5633 20.5942 9.80039 20.4813C9.90195 19.7254 10.1785 19.1439 10.6297 18.7377C9.98656 18.6699 9.40826 18.5685 8.89465 18.4329C8.38133 18.2974 7.85088 18.0775 7.30365 17.7727C6.75618 17.468 6.30204 17.0902 5.94091 16.6385C5.57985 16.1869 5.28352 15.5945 5.05236 14.8612C4.82108 14.1275 4.70541 13.281 4.70541 12.3219C4.70541 10.9566 5.15131 9.79405 6.04277 8.83495C5.62514 7.80807 5.66457 6.65717 6.16117 5.38188C6.48844 5.28026 6.97377 5.35651 7.61693 5.61044C8.26021 5.86455 8.73119 6.08184 9.03036 6.26214C9.32953 6.44249 9.56923 6.59498 9.74982 6.71925C10.7995 6.42583 11.8828 6.27915 12.9999 6.27915C14.1169 6.27915 15.2004 6.42583 16.2501 6.71925L16.8933 6.31301C17.3336 6.04206 17.8526 5.79382 18.4508 5.56823C19.0489 5.34258 19.5058 5.28044 19.8219 5.38206C20.3296 6.65735 20.375 7.80825 19.9571 8.83506C20.8485 9.79429 21.2945 10.9568 21.2945 12.3221C21.2945 13.2814 21.1789 14.1307 20.9476 14.8697C20.7165 15.6088 20.4176 16.2014 20.0505 16.6472C19.6839 17.093 19.2268 17.4679 18.6796 17.7728C18.1322 18.0774 17.6018 18.2977 17.0883 18.4328C16.5748 18.5683 15.9965 18.6702 15.3533 18.738C15.9397 19.2456 16.2331 20.0466 16.2331 21.1414V25.1871C16.2331 25.379 16.2611 25.5341 16.3175 25.6526C16.3743 25.771 16.4644 25.8526 16.5885 25.8981C16.7132 25.9431 16.8227 25.9713 16.9188 25.9825C17.015 25.9938 17.153 25.9995 17.3335 25.9995H21.1252C22.468 25.9995 23.6164 25.5227 24.5696 24.5691C25.5231 23.6155 25.9999 22.4671 25.9999 21.1244V4.87497C25.9998 3.53215 25.523 2.38362 24.5696 1.43021Z" fill="#D3D3D3"/>
<path d="M5.1459 18.9243C5.06698 18.9805 5.07825 19.0708 5.17981 19.195C5.29281 19.3078 5.38299 19.3248 5.45076 19.2457C5.52967 19.1895 5.51841 19.0992 5.41667 18.9748C5.3039 18.8734 5.21366 18.8564 5.1459 18.9243Z" fill="#D3D3D3"/>
<path d="M4.58749 18.5016C4.5537 18.5808 4.59319 18.6485 4.70601 18.7047C4.79619 18.7614 4.86976 18.7502 4.92603 18.6711C4.95982 18.5919 4.92034 18.5242 4.80751 18.4675C4.69469 18.4336 4.62135 18.445 4.58749 18.5016Z" fill="#D3D3D3"/>
<path d="M5.67062 19.5843C5.56894 19.6405 5.56894 19.7424 5.67062 19.8889C5.77218 20.0358 5.86793 20.0752 5.95835 20.0074C6.05997 19.9283 6.05997 19.8211 5.95835 19.6856C5.86817 19.5393 5.77218 19.505 5.67062 19.5843Z" fill="#D3D3D3"/>
<path d="M6.26322 20.3457C6.1616 20.4361 6.18401 20.5429 6.33092 20.6675C6.46616 20.8026 6.57904 20.8196 6.66934 20.7178C6.7597 20.6278 6.73711 20.5206 6.60163 20.3965C6.4664 20.2613 6.35351 20.2442 6.26322 20.3457Z" fill="#D3D3D3"/>
</g>
<defs>
<clipPath id="clip0_6_955">
<rect width="26" height="26" fill="white"/>
</clipPath>
</defs>
</svg>
