<svg width="60" height="60" viewBox="0 0 60 60" fill="none" xmlns="http://www.w3.org/2000/svg">
<path opacity="0.2" d="M30 60C46.5685 60 60 46.5685 60 30C60 13.4315 46.5685 0 30 0C13.4315 0 0 13.4315 0 30C0 46.5685 13.4315 60 30 60Z" fill="#3E9AFF"/>
<mask id="mask0_215_1298" style="mask-type:luminance" maskUnits="userSpaceOnUse" x="26" y="41" width="8" height="6">
<path d="M31.748 41.9937H28.2519C27.5418 41.9937 26.923 42.5004 26.9825 43.2081C27.0763 44.3225 27.6019 45.8803 29.7064 46.4242C29.8981 46.4737 30.1019 46.4737 30.2935 46.4242C32.398 45.8803 32.9237 44.3225 33.0174 43.2081C33.0769 42.5004 32.4581 41.9937 31.748 41.9937Z" fill="#3E9AFF"/>
</mask>
<g mask="url(#mask0_215_1298)">
<path d="M28.2515 44.992H31.7476V38.9951H28.2515V44.992ZM23.9942 43.4593C24.0681 44.3369 24.3218 45.5573 25.1114 46.7172C25.9452 47.9422 27.2308 48.8814 28.9558 49.3271L30.4563 43.5211C30.2413 43.4655 30.1433 43.4049 30.1121 43.3833C30.0826 43.3629 30.0742 43.3509 30.0687 43.3428C30.0459 43.3093 29.9899 43.1935 29.97 42.9566L23.9942 43.4593ZM31.0434 49.3271C32.7683 48.8814 34.0539 47.9422 34.8878 46.7172C35.6774 45.5573 35.9311 44.3369 36.0049 43.4593L30.0292 42.9567C30.0092 43.1935 29.9533 43.3093 29.9304 43.3428C29.9249 43.3509 29.9166 43.3629 29.887 43.3833C29.8559 43.4049 29.7579 43.4655 29.5429 43.5211L31.0434 49.3271ZM31.7476 44.992C31.4094 44.992 31.0059 44.8749 30.651 44.5513C30.2588 44.1938 29.9743 43.6091 30.0292 42.9567L36.0049 43.4593C36.2534 40.5053 33.6715 38.9951 31.7476 38.9951V44.992ZM28.9558 49.3271C29.6395 49.5038 30.3596 49.5038 31.0434 49.3271L29.5429 43.5211C29.8433 43.4434 30.1558 43.4434 30.4563 43.5211L28.9558 49.3271ZM28.2515 38.9951C26.3277 38.9951 23.7458 40.5053 23.9942 43.4593L29.97 42.9566C30.0249 43.6091 29.7404 44.1938 29.3481 44.5513C28.9932 44.8749 28.5897 44.992 28.2515 44.992V38.9951Z" fill="#3E9AFF"/>
</g>
<path fill-rule="evenodd" clip-rule="evenodd" d="M22.5035 22.7521C23.6277 19.3799 27.2802 15.5863 29.0377 13.8989C29.5795 13.3787 30.4198 13.3787 30.9616 13.8989C32.7191 15.5863 36.3715 19.3799 37.4956 22.7521C38.0693 24.4732 38.013 26.9554 37.6822 29.5024C40.0797 29.6002 41.9933 31.5747 41.9933 33.9962V40.1902C41.9933 41.3876 40.6588 42.1018 39.6625 41.4376L35.285 38.5192C34.4819 39.4416 33.2862 39.9931 31.9931 39.9931H27.9939C26.7034 39.9931 25.5096 39.4438 24.7073 38.5239L20.3368 41.4376C19.3405 42.1018 18.0059 41.3876 18.0059 40.1902V33.9962C18.0059 31.5797 19.9118 29.6082 22.3024 29.503C21.9752 26.9666 21.9243 24.4896 22.5035 22.7521ZM29.9996 27.9994C31.6556 27.9994 32.998 26.6569 32.998 25.001C32.998 23.345 31.6556 22.0025 29.9996 22.0025C28.3436 22.0025 27.0012 23.345 27.0012 25.001C27.0012 26.6569 28.3436 27.9994 29.9996 27.9994Z" fill="#3E9AFF"/>
</svg>
