<svg width="64" height="64" viewBox="0 0 64 64" fill="none" xmlns="http://www.w3.org/2000/svg">
<circle cx="32" cy="32" r="32" fill="#1DC9FF" fill-opacity="0.4"/>
<g clip-path="url(#clip0_6_642)">
<path d="M27.0218 17.959H21.0405C19.3267 17.959 17.9374 19.3794 17.9374 21.1317V27.247C17.9374 28.9992 19.3267 30.4196 21.0405 30.4196H27.0218C28.7356 30.4196 30.1249 28.9992 30.1249 27.247V21.1317C30.1249 19.3794 28.7356 17.959 27.0218 17.959Z" fill="#46CEF9"/>
<path d="M42.9593 17.959H36.978C35.2642 17.959 33.8749 19.3794 33.8749 21.1317V27.247C33.8749 28.9992 35.2642 30.4196 36.978 30.4196H42.9593C44.6731 30.4196 46.0624 28.9992 46.0624 27.247V21.1317C46.0624 19.3794 44.6731 17.959 42.9593 17.959Z" fill="#46CEF9"/>
<path d="M27.0218 34.2539H21.0405C19.3267 34.2539 17.9374 35.6744 17.9374 37.4266V43.5419C17.9374 45.2941 19.3267 46.7146 21.0405 46.7146H27.0218C28.7356 46.7146 30.1249 45.2941 30.1249 43.5419V37.4266C30.1249 35.6744 28.7356 34.2539 27.0218 34.2539Z" fill="#46CEF9"/>
<path d="M39.9686 46.7146C43.3341 46.7146 46.0624 43.9251 46.0624 40.4842C46.0624 37.0433 43.3341 34.2539 39.9686 34.2539C36.6031 34.2539 33.8749 37.0433 33.8749 40.4842C33.8749 43.9251 36.6031 46.7146 39.9686 46.7146Z" fill="#46CEF9"/>
</g>
<defs>
<clipPath id="clip0_6_642">
<rect width="30" height="30.6724" fill="white" transform="translate(16.9999 17)"/>
</clipPath>
</defs>
</svg>
