<svg width="60" height="60" viewBox="0 0 60 60" fill="none" xmlns="http://www.w3.org/2000/svg">
<path opacity="0.2" d="M30 60C46.5685 60 60 46.5685 60 30C60 13.4315 46.5685 0 30 0C13.4315 0 0 13.4315 0 30C0 46.5685 13.4315 60 30 60Z" fill="#3E9AFF"/>
<path fill-rule="evenodd" clip-rule="evenodd" d="M24.7861 45.6429C24.7861 44.683 25.5642 43.9048 26.5242 43.9048H33.4766C34.4365 43.9048 35.2147 44.683 35.2147 45.6429C35.2147 46.6028 34.4365 47.381 33.4766 47.381H26.5242C25.5642 47.381 24.7861 46.6028 24.7861 45.6429Z" fill="#3E9AFF"/>
<path fill-rule="evenodd" clip-rule="evenodd" d="M36.0831 36.3275C36.0831 35.7071 36.4197 35.1416 36.9294 34.7878C40.0943 32.5909 42.1665 28.9304 42.1665 24.7859C42.1665 18.0664 36.7193 12.6191 29.9997 12.6191C23.2802 12.6191 17.833 18.0664 17.833 24.7859C17.833 28.9304 19.9052 32.5909 23.0701 34.7878C23.5798 35.1416 23.9164 35.7071 23.9164 36.3275V36.9527C23.9164 39.3525 25.8618 41.298 28.2616 41.298H31.7379C34.1377 41.298 36.0831 39.3525 36.0831 36.9527V36.3275Z" fill="#3E9AFF"/>
</svg>
