<svg width="60" height="60" viewBox="0 0 60 60" fill="none" xmlns="http://www.w3.org/2000/svg">
<path opacity="0.2" d="M30 60C46.5685 60 60 46.5685 60 30C60 13.4315 46.5685 0 30 0C13.4315 0 0 13.4315 0 30C0 46.5685 13.4315 60 30 60Z" fill="#FFB444"/>
<path d="M30.0006 46.6697C39.207 46.6697 46.6702 39.2065 46.6702 30.0001C46.6702 27.2363 45.9975 24.6295 44.807 22.3346C44.5577 21.854 43.9163 21.7758 43.5334 22.1587L30.6911 35.001C29.3891 36.303 27.2782 36.303 25.9762 35.001L21.3206 30.3454C20.6696 29.6944 20.6696 28.6389 21.3206 27.9879C21.9716 27.3369 23.0271 27.3369 23.678 27.9879L28.3337 32.6436L41.7049 19.2817C42.0211 18.9658 42.0333 18.455 41.7153 18.1409C38.7046 15.1667 34.567 13.3306 30.0006 13.3306C20.7943 13.3306 13.3311 20.7938 13.3311 30.0001C13.3311 39.2065 20.7943 46.6697 30.0006 46.6697Z" fill="#FFB444"/>
</svg>
