<svg width="60" height="60" viewBox="0 0 60 60" fill="none" xmlns="http://www.w3.org/2000/svg">
<path opacity="0.2" d="M30 60C46.5685 60 60 46.5685 60 30C60 13.4315 46.5685 0 30 0C13.4315 0 0 13.4315 0 30C0 46.5685 13.4315 60 30 60Z" fill="#05C168"/>
<path fill-rule="evenodd" clip-rule="evenodd" d="M37.2155 41.4143C43.5194 41.4143 48.6297 36.304 48.6297 30.0001C48.6297 23.6962 43.5194 18.5859 37.2155 18.5859C32.9906 18.5859 29.3019 20.8813 27.3283 24.293H17.0752C16.5705 24.293 16.0865 24.4936 15.7297 24.8505L11.927 28.6549C11.1844 29.3979 11.1845 30.6022 11.9273 31.345L15.7324 35.15C16.0892 35.5068 16.5731 35.7072 17.0776 35.7072H27.3283C29.3019 39.1189 32.9906 41.4143 37.2155 41.4143ZM41.0202 30.0001C41.0202 32.1014 39.3167 33.8048 37.2155 33.8048C35.1142 33.8048 33.4107 32.1014 33.4107 30.0001C33.4107 27.8988 35.1142 26.1954 37.2155 26.1954C39.3167 26.1954 41.0202 27.8988 41.0202 30.0001Z" fill="#05C168"/>
</svg>
