<svg width="38" height="38" viewBox="0 0 38 38" fill="none" xmlns="http://www.w3.org/2000/svg">
<g clip-path="url(#clip0_1518_1312)">
<path d="M22.8761 25.7133C22.0282 26.9189 21.1043 28.0692 20.11 29.1571C22.7573 31.7268 25.221 32.9302 26.5858 32.1401C27.9538 31.3516 28.1422 28.6172 27.2413 25.0404C25.8907 25.3412 24.423 25.5692 22.8761 25.7133ZM20.8019 25.8511C19.6012 25.9008 18.3989 25.9008 17.1982 25.8511C17.7952 26.6301 18.3984 27.3521 19.0001 28.0107C19.6017 27.3521 20.2034 26.6301 20.8019 25.8511ZM28.7819 13.3522C33.0015 14.5619 35.7565 16.5727 35.7565 19C35.7565 21.4272 33.0015 23.4381 28.7819 24.6477C29.8427 28.9069 29.4802 32.2984 27.3791 33.5112C25.2764 34.7257 22.1572 33.345 19.0001 30.2971C15.8429 33.345 12.7237 34.7257 10.6211 33.5112C8.51999 32.2984 8.15582 28.9069 9.21824 24.6477C4.99865 23.4381 2.24365 21.4272 2.24365 19C2.24365 16.5727 4.99865 14.5619 9.21824 13.3522C8.1574 9.09307 8.51999 5.70157 10.6211 4.48874C12.7237 3.27432 15.8429 4.65499 19.0001 7.7029C22.1572 4.65499 25.2764 3.27432 27.3791 4.48874C29.4802 5.70157 29.8443 9.09307 28.7819 13.3522ZM27.2413 12.9596C28.1438 9.38124 27.9538 6.6484 26.5874 5.8599C25.221 5.06982 22.7573 6.27315 20.1116 8.8429C21.1048 9.93133 22.0282 11.0815 22.8761 12.2867C24.4246 12.4292 25.8907 12.6572 27.2413 12.9596ZM10.7588 25.0404C9.85632 28.6187 10.0463 31.3516 11.4127 32.1401C12.7792 32.9302 15.2428 31.7268 17.8886 29.1571C16.8948 28.0691 15.9714 26.9189 15.1241 25.7133C13.6562 25.5821 12.1981 25.3573 10.7588 25.0404ZM17.1982 12.1489C18.3989 12.0992 19.6012 12.0992 20.8019 12.1489C20.2327 11.4039 19.6315 10.6839 19.0001 9.99082C18.3984 10.6495 17.7967 11.3699 17.1982 12.1489ZM15.1241 12.2867C15.9724 11.081 16.8968 9.93076 17.8917 8.8429C15.2428 6.27315 12.7776 5.06982 11.4143 5.8599C10.0463 6.6484 9.8579 9.38282 10.7588 12.9596C12.1094 12.6587 13.5772 12.4307 15.1241 12.2867ZM21.9989 24.1933C23.126 22.5393 24.1279 20.8034 24.9962 19C24.1279 17.1966 23.126 15.4607 21.9989 13.8067C20.0025 13.6572 17.9977 13.6572 16.0012 13.8067C14.8742 15.4607 13.8723 17.1966 13.004 19C13.8723 20.8034 14.8742 22.5393 16.0012 24.1933C17.9977 24.3428 20.0025 24.3428 21.9989 24.1933ZM24.0319 23.9859C25.0057 23.8592 25.9319 23.6962 26.8027 23.5046C26.518 22.6112 26.1947 21.7306 25.8337 20.8652C25.2764 21.9293 24.6753 22.9699 24.0319 23.9843V23.9859ZM13.9682 14.0125C12.9945 14.1392 12.0682 14.3022 11.1974 14.4938C11.4666 15.3425 11.7896 16.226 12.1664 17.1332C12.7238 16.0691 13.3249 15.0269 13.9682 14.0125ZM11.1974 23.503C12.0682 23.6946 12.9945 23.8561 13.9682 23.9843C13.3249 22.9699 12.7238 21.9293 12.1664 20.8652C11.8053 21.73 11.482 22.6101 11.1974 23.503ZM9.6489 23.1151C10.0622 21.7946 10.5989 20.4107 11.2481 18.9984C10.6285 17.6614 10.0944 16.2864 9.6489 14.8817C6.09907 15.8903 3.82699 17.4214 3.82699 18.9984C3.82699 20.5754 6.09907 22.1065 9.6489 23.1151ZM26.8027 14.4938C25.8864 14.294 24.9619 14.1334 24.0319 14.0125C24.6753 15.0269 25.2764 16.0675 25.8337 17.1317C26.2106 16.226 26.5336 15.3425 26.8027 14.4938ZM28.3512 14.8817C27.938 16.2022 27.4012 17.5861 26.7521 18.9984C27.4012 20.4107 27.938 21.7946 28.3512 23.1151C31.9011 22.1065 34.1732 20.5754 34.1732 18.9984C34.1732 17.4214 31.9011 15.8903 28.3512 14.8817ZM19.0001 21.9767C18.6092 21.9767 18.2221 21.8997 17.8609 21.7501C17.4998 21.6005 17.1717 21.3812 16.8952 21.1048C16.6188 20.8284 16.3996 20.5003 16.25 20.1391C16.1004 19.778 16.0234 19.3909 16.0234 19C16.0234 18.6091 16.1004 18.222 16.25 17.8609C16.3996 17.4997 16.6188 17.1716 16.8952 16.8952C17.1717 16.6188 17.4998 16.3995 17.8609 16.2499C18.2221 16.1003 18.6092 16.0233 19.0001 16.0233C19.7895 16.0233 20.5467 16.3369 21.1049 16.8952C21.6631 17.4534 21.9767 18.2105 21.9767 19C21.9767 19.7894 21.6631 20.5466 21.1049 21.1048C20.5467 21.663 19.7895 21.9767 19.0001 21.9767Z" fill="white"/>
</g>
<defs>
<clipPath id="clip0_1518_1312">
<rect width="38" height="38" fill="white"/>
</clipPath>
</defs>
</svg>
