<svg width="60" height="60" viewBox="0 0 60 60" fill="none" xmlns="http://www.w3.org/2000/svg">
<path opacity="0.2" d="M30 60C46.5685 60 60 46.5685 60 30C60 13.4315 46.5685 0 30 0C13.4315 0 0 13.4315 0 30C0 46.5685 13.4315 60 30 60Z" fill="#FFB444"/>
<path d="M12.3721 38.0128V42.8205C12.3721 43.7055 13.0896 44.423 13.9747 44.423H36.4105C37.2956 44.423 38.0131 43.7055 38.0131 42.8205V38.0128C38.0131 34.4725 35.1431 31.6025 31.6028 31.6025H18.7824C15.2421 31.6025 12.3721 34.4725 12.3721 38.0128Z" fill="#FFB444"/>
<path d="M41.1919 43.3201C41.1351 43.8702 41.5241 44.423 42.0771 44.423H46.0253C46.9103 44.423 47.6278 43.7055 47.6278 42.8205V38.0128C47.6278 34.4725 44.7579 31.6025 41.2176 31.6025H39.6655C39.3191 31.6025 39.1291 32.0188 39.3352 32.2971C40.5181 33.8949 41.2176 35.8721 41.2176 38.0128V42.8205C41.2176 42.9892 41.2089 43.1559 41.1919 43.3201Z" fill="#FFB444"/>
<path d="M31.6027 21.9869C31.6027 25.5272 28.7327 28.3971 25.1924 28.3971C21.6521 28.3971 18.7822 25.5272 18.7822 21.9869C18.7822 18.4466 21.6521 15.5767 25.1924 15.5767C28.7327 15.5767 31.6027 18.4466 31.6027 21.9869Z" fill="#FFB444"/>
<path d="M33.7669 28.3131C33.2209 28.224 33.0347 27.5787 33.3299 27.1107C34.2658 25.6274 34.8074 23.8704 34.8074 21.9869C34.8074 20.1034 34.2658 18.3464 33.3299 16.8631C33.0347 16.3951 33.2209 15.7498 33.7669 15.6607C34.1055 15.6054 34.4531 15.5767 34.8074 15.5767C38.3476 15.5767 41.2176 18.4466 41.2176 21.9869C41.2176 25.5272 38.3476 28.3971 34.8074 28.3971C34.4531 28.3971 34.1055 28.3684 33.7669 28.3131Z" fill="#FFB444"/>
</svg>
