<svg width="119" height="39" viewBox="0 0 119 39" fill="none" xmlns="http://www.w3.org/2000/svg">
<path d="M6.39478 32.4051C5.34988 32.4051 4.4234 32.1822 3.61535 31.7363C2.80729 31.2905 2.17339 30.6636 1.71363 29.8555C1.25388 29.0475 1.024 28.114 1.024 27.0552C1.024 25.9824 1.24691 25.0281 1.69273 24.1922C2.15249 23.3563 2.77943 22.7084 3.57355 22.2487C4.38161 21.775 5.32898 21.5381 6.41567 21.5381C7.43271 21.5381 8.33132 21.761 9.11151 22.2069C9.8917 22.6527 10.4977 23.2657 10.9296 24.0459C11.3755 24.8121 11.5984 25.669 11.5984 26.6163C11.5984 26.7696 11.5914 26.9298 11.5775 27.097C11.5775 27.2642 11.5705 27.4383 11.5566 27.6194H3.67804C3.73377 28.4275 4.01241 29.0614 4.51396 29.5212C5.02944 29.9809 5.64942 30.2108 6.37388 30.2108C6.91722 30.2108 7.37001 30.0924 7.73224 29.8555C8.10841 29.6047 8.38705 29.2843 8.56816 28.8942H11.2849C11.0899 29.549 10.7624 30.1481 10.3027 30.6914C9.85687 31.2209 9.29959 31.6388 8.63086 31.9453C7.97605 32.2518 7.23069 32.4051 6.39478 32.4051ZM6.41567 23.7115C5.76087 23.7115 5.18269 23.8996 4.68114 24.2758C4.17959 24.638 3.85916 25.1953 3.71984 25.9476H8.88163C8.83984 25.2649 8.58906 24.7216 8.12931 24.3176C7.66955 23.9135 7.09834 23.7115 6.41567 23.7115ZM13.8482 32.1543V21.7889H16.2096L16.4186 23.5443C16.739 22.9313 17.1988 22.4437 17.7979 22.0815C18.4109 21.7192 19.1284 21.5381 19.9504 21.5381C21.2321 21.5381 22.2282 21.9422 22.9388 22.7502C23.6493 23.5583 24.0046 24.7425 24.0046 26.3029V32.1543H21.3296V26.5536C21.3296 25.662 21.1485 24.9793 20.7863 24.5056C20.4241 24.032 19.8598 23.7951 19.0936 23.7951C18.3412 23.7951 17.7213 24.0598 17.2336 24.5892C16.7599 25.1187 16.5231 25.857 16.5231 26.8044V32.1543H13.8482ZM30.951 29.0614C30.4495 29.0614 29.9827 29.0057 29.5509 28.8942L28.7776 29.6674C29.0145 29.7928 29.3349 29.8973 29.7389 29.9809C30.143 30.0645 30.7978 30.1481 31.7033 30.2317C33.0826 30.3571 34.0857 30.6845 34.7127 31.2139C35.3396 31.7433 35.6531 32.4747 35.6531 33.4082C35.6531 34.0212 35.4859 34.5994 35.1515 35.1427C34.8171 35.7 34.3017 36.1458 33.6051 36.4802C32.9085 36.8285 32.0168 37.0026 30.9301 37.0026C29.4533 37.0026 28.2622 36.724 27.3566 36.1667C26.451 35.6234 25.9982 34.8014 25.9982 33.7007C25.9982 32.7673 26.451 31.9592 27.3566 31.2766C27.0779 31.1512 26.8341 31.0188 26.6251 30.8795C26.4301 30.7402 26.2559 30.5939 26.1027 30.4407V29.96L27.9208 28.0374C27.1128 27.3269 26.7087 26.4143 26.7087 25.2998C26.7087 24.6032 26.8759 23.9693 27.2103 23.3981C27.5586 22.8268 28.0462 22.3741 28.6731 22.0397C29.3001 21.7053 30.0594 21.5381 30.951 21.5381C31.5362 21.5381 32.0795 21.6217 32.5811 21.7889H36.5099V23.4189L34.7336 23.5443C35.0122 24.0738 35.1515 24.6589 35.1515 25.2998C35.1515 25.9964 34.9843 26.6303 34.65 27.2015C34.3156 27.7727 33.828 28.2255 33.1871 28.5598C32.5602 28.8942 31.8148 29.0614 30.951 29.0614ZM30.951 27.0134C31.4944 27.0134 31.9402 26.8671 32.2885 26.5745C32.6507 26.282 32.8318 25.864 32.8318 25.3207C32.8318 24.7773 32.6507 24.3594 32.2885 24.0668C31.9402 23.7742 31.4944 23.6279 30.951 23.6279C30.3798 23.6279 29.9201 23.7742 29.5718 24.0668C29.2235 24.3594 29.0493 24.7773 29.0493 25.3207C29.0493 25.864 29.2235 26.282 29.5718 26.5745C29.9201 26.8671 30.3798 27.0134 30.951 27.0134ZM28.4433 33.4291C28.4433 33.9446 28.6801 34.3277 29.1538 34.5785C29.6414 34.8432 30.2335 34.9755 30.9301 34.9755C31.5989 34.9755 32.1422 34.8362 32.5602 34.5576C32.9781 34.2929 33.1871 33.9306 33.1871 33.4709C33.1871 33.0947 33.0478 32.7812 32.7691 32.5305C32.5044 32.2797 31.9681 32.1264 31.16 32.0707C30.5888 32.0289 30.0594 31.9662 29.5718 31.8826C29.1677 32.1055 28.8752 32.3493 28.694 32.6141C28.5269 32.8788 28.4433 33.1504 28.4433 33.4291ZM42.034 32.4051C41.1423 32.4051 40.4109 32.2658 39.8397 31.9871C39.2685 31.6945 38.8435 31.3114 38.5649 30.8377C38.2863 30.364 38.1469 29.8416 38.1469 29.2704C38.1469 28.3091 38.5231 27.5289 39.2754 26.9298C40.0278 26.3307 41.1562 26.0312 42.6609 26.0312H45.294V25.7804C45.294 25.0699 45.092 24.5474 44.688 24.2131C44.284 23.8787 43.7824 23.7115 43.1833 23.7115C42.64 23.7115 42.1663 23.8439 41.7623 24.1086C41.3583 24.3594 41.1075 24.7355 41.01 25.2371H38.3977C38.4674 24.4847 38.7181 23.8299 39.15 23.2727C39.5959 22.7154 40.1671 22.2905 40.8637 21.9979C41.5603 21.6914 42.3405 21.5381 43.2042 21.5381C44.681 21.5381 45.8444 21.9073 46.6942 22.6457C47.5441 23.3841 47.969 24.429 47.969 25.7804V32.1543H45.6911L45.4403 30.4825C45.1338 31.0397 44.7019 31.4995 44.1447 31.8617C43.6013 32.224 42.8977 32.4051 42.034 32.4051ZM42.64 30.3153C43.4063 30.3153 43.9984 30.0645 44.4163 29.5629C44.8482 29.0614 45.1199 28.4414 45.2313 27.703H42.9535C42.2429 27.703 41.7344 27.8354 41.4279 28.1001C41.1214 28.3509 40.9682 28.6643 40.9682 29.0405C40.9682 29.4445 41.1214 29.758 41.4279 29.9809C41.7344 30.2038 42.1384 30.3153 42.64 30.3153ZM54.9102 29.0614C54.4087 29.0614 53.9419 29.0057 53.51 28.8942L52.7368 29.6674C52.9737 29.7928 53.2941 29.8973 53.6981 29.9809C54.1021 30.0645 54.757 30.1481 55.6625 30.2317C57.0418 30.3571 58.0449 30.6845 58.6718 31.2139C59.2988 31.7433 59.6122 32.4747 59.6122 33.4082C59.6122 34.0212 59.4451 34.5994 59.1107 35.1427C58.7763 35.7 58.2608 36.1458 57.5642 36.4802C56.8676 36.8285 55.976 37.0026 54.8893 37.0026C53.4125 37.0026 52.2213 36.724 51.3158 36.1667C50.4102 35.6234 49.9574 34.8014 49.9574 33.7007C49.9574 32.7673 50.4102 31.9592 51.3158 31.2766C51.0371 31.1512 50.7933 31.0188 50.5843 30.8795C50.3893 30.7402 50.2151 30.5939 50.0619 30.4407V29.96L51.88 28.0374C51.0719 27.3269 50.6679 26.4143 50.6679 25.2998C50.6679 24.6032 50.8351 23.9693 51.1695 23.3981C51.5178 22.8268 52.0054 22.3741 52.6323 22.0397C53.2593 21.7053 54.0186 21.5381 54.9102 21.5381C55.4953 21.5381 56.0387 21.6217 56.5402 21.7889H60.4691V23.4189L58.6927 23.5443C58.9714 24.0738 59.1107 24.6589 59.1107 25.2998C59.1107 25.9964 58.9435 26.6303 58.6091 27.2015C58.2748 27.7727 57.7872 28.2255 57.1463 28.5598C56.5193 28.8942 55.774 29.0614 54.9102 29.0614ZM54.9102 27.0134C55.4536 27.0134 55.8994 26.8671 56.2477 26.5745C56.6099 26.282 56.791 25.864 56.791 25.3207C56.791 24.7773 56.6099 24.3594 56.2477 24.0668C55.8994 23.7742 55.4536 23.6279 54.9102 23.6279C54.339 23.6279 53.8792 23.7742 53.5309 24.0668C53.1826 24.3594 53.0085 24.7773 53.0085 25.3207C53.0085 25.864 53.1826 26.282 53.5309 26.5745C53.8792 26.8671 54.339 27.0134 54.9102 27.0134ZM52.4024 33.4291C52.4024 33.9446 52.6393 34.3277 53.113 34.5785C53.6006 34.8432 54.1927 34.9755 54.8893 34.9755C55.558 34.9755 56.1014 34.8362 56.5193 34.5576C56.9373 34.2929 57.1463 33.9306 57.1463 33.4709C57.1463 33.0947 57.007 32.7812 56.7283 32.5305C56.4636 32.2797 55.9272 32.1264 55.1192 32.0707C54.548 32.0289 54.0186 31.9662 53.5309 31.8826C53.1269 32.1055 52.8343 32.3493 52.6532 32.6141C52.486 32.8788 52.4024 33.1504 52.4024 33.4291ZM67.0478 32.4051C66.0029 32.4051 65.0765 32.1822 64.2684 31.7363C63.4604 31.2905 62.8264 30.6636 62.3667 29.8555C61.9069 29.0475 61.6771 28.114 61.6771 27.0552C61.6771 25.9824 61.9 25.0281 62.3458 24.1922C62.8056 23.3563 63.4325 22.7084 64.2266 22.2487C65.0347 21.775 65.982 21.5381 67.0687 21.5381C68.0858 21.5381 68.9844 21.761 69.7646 22.2069C70.5448 22.6527 71.1508 23.2657 71.5827 24.0459C72.0285 24.8121 72.2514 25.669 72.2514 26.6163C72.2514 26.7696 72.2445 26.9298 72.2305 27.097C72.2305 27.2642 72.2236 27.4383 72.2096 27.6194H64.3311C64.3868 28.4275 64.6655 29.0614 65.167 29.5212C65.6825 29.9809 66.3025 30.2108 67.0269 30.2108C67.5703 30.2108 68.0231 30.0924 68.3853 29.8555C68.7615 29.6047 69.0401 29.2843 69.2212 28.8942H71.938C71.7429 29.549 71.4155 30.1481 70.9558 30.6914C70.5099 31.2209 69.9527 31.6388 69.2839 31.9453C68.6291 32.2518 67.8838 32.4051 67.0478 32.4051ZM67.0687 23.7115C66.4139 23.7115 65.8358 23.8996 65.3342 24.2758C64.8327 24.638 64.5122 25.1953 64.3729 25.9476H69.5347C69.4929 25.2649 69.2421 24.7216 68.7824 24.3176C68.3226 23.9135 67.7514 23.7115 67.0687 23.7115ZM78.7853 32.4051C77.8658 32.4051 77.0577 32.2588 76.3611 31.9662C75.6645 31.6597 75.1073 31.2418 74.6893 30.7123C74.2713 30.1829 74.0206 29.5699 73.937 28.8733H76.6328C76.7164 29.2773 76.9393 29.6256 77.3015 29.9182C77.6777 30.1969 78.1584 30.3362 78.7435 30.3362C79.3286 30.3362 79.7536 30.2178 80.0183 29.9809C80.2969 29.7441 80.4362 29.4724 80.4362 29.1659C80.4362 28.7201 80.2412 28.4205 79.8511 28.2673C79.461 28.1001 78.9177 27.9399 78.2211 27.7866C77.7752 27.6891 77.3224 27.5707 76.8627 27.4314C76.4029 27.292 75.978 27.1179 75.5879 26.9089C75.2118 26.686 74.9052 26.4074 74.6684 26.073C74.4316 25.7247 74.3131 25.2998 74.3131 24.7982C74.3131 23.8787 74.6754 23.1055 75.3998 22.4785C76.1382 21.8516 77.1692 21.5381 78.4927 21.5381C79.7187 21.5381 80.694 21.8237 81.4184 22.3949C82.1568 22.9662 82.5957 23.7533 82.735 24.7564H80.2064C80.0531 23.9902 79.4749 23.607 78.4718 23.607C77.9703 23.607 77.5802 23.7046 77.3015 23.8996C77.0368 24.0947 76.9045 24.3385 76.9045 24.631C76.9045 24.9375 77.1065 25.1813 77.5105 25.3625C77.9146 25.5436 78.4509 25.7108 79.1197 25.864C79.8441 26.0312 80.5059 26.2193 81.105 26.4283C81.718 26.6233 82.2056 26.9228 82.5678 27.3269C82.9301 27.717 83.1112 28.2812 83.1112 29.0196C83.1251 29.6605 82.9579 30.2387 82.6096 30.7541C82.2613 31.2696 81.7598 31.6736 81.105 31.9662C80.4502 32.2588 79.6769 32.4051 78.7853 32.4051ZM85.4808 36.7518V21.7889H87.8632L88.1558 23.2727C88.4901 22.8129 88.929 22.4089 89.4723 22.0606C90.0296 21.7123 90.7471 21.5381 91.6248 21.5381C92.6 21.5381 93.4708 21.775 94.2371 22.2487C95.0033 22.7224 95.6094 23.3702 96.0552 24.1922C96.501 25.0142 96.7239 25.9476 96.7239 26.9925C96.7239 28.0374 96.501 28.9708 96.0552 29.7928C95.6094 30.6009 95.0033 31.2418 94.2371 31.7154C93.4708 32.1752 92.6 32.4051 91.6248 32.4051C90.8446 32.4051 90.162 32.2588 89.5768 31.9662C88.9917 31.6736 88.518 31.2627 88.1558 30.7332V36.7518H85.4808ZM91.0606 30.0645C91.9104 30.0645 92.614 29.7789 93.1713 29.2077C93.7285 28.6365 94.0072 27.8981 94.0072 26.9925C94.0072 26.0869 93.7285 25.3416 93.1713 24.7564C92.614 24.1713 91.9104 23.8787 91.0606 23.8787C90.1968 23.8787 89.4863 24.1713 88.929 24.7564C88.3856 25.3276 88.114 26.066 88.114 26.9716C88.114 27.8772 88.3856 28.6225 88.929 29.2077C89.4863 29.7789 90.1968 30.0645 91.0606 30.0645ZM104.087 32.4051C103.084 32.4051 102.178 32.1752 101.37 31.7154C100.576 31.2557 99.9424 30.6218 99.4687 29.8137C99.009 28.9917 98.7791 28.0444 98.7791 26.9716C98.7791 25.8988 99.0159 24.9584 99.4896 24.1504C99.9633 23.3284 100.597 22.6875 101.391 22.2278C102.199 21.768 103.105 21.5381 104.108 21.5381C105.097 21.5381 105.989 21.768 106.783 22.2278C107.591 22.6875 108.225 23.3284 108.685 24.1504C109.158 24.9584 109.395 25.8988 109.395 26.9716C109.395 28.0444 109.158 28.9917 108.685 29.8137C108.225 30.6218 107.591 31.2557 106.783 31.7154C105.975 32.1752 105.076 32.4051 104.087 32.4051ZM104.087 30.0854C104.784 30.0854 105.39 29.8277 105.905 29.3122C106.421 28.7828 106.679 28.0026 106.679 26.9716C106.679 25.9406 106.421 25.1674 105.905 24.6519C105.39 24.1225 104.791 23.8578 104.108 23.8578C103.398 23.8578 102.785 24.1225 102.269 24.6519C101.768 25.1674 101.517 25.9406 101.517 26.9716C101.517 28.0026 101.768 28.7828 102.269 29.3122C102.785 29.8277 103.391 30.0854 104.087 30.0854ZM115.997 32.1543C114.911 32.1543 114.04 31.8896 113.385 31.3602C112.73 30.8308 112.403 29.8904 112.403 28.5389V24.025H110.626V21.7889H112.403L112.716 19.0095H115.078V21.7889H117.878V24.025H115.078V28.5598C115.078 29.0614 115.182 29.4097 115.391 29.6047C115.614 29.7859 115.99 29.8764 116.52 29.8764H117.815V32.1543H115.997Z" fill="white"/>
<mask id="mask0_6_216" style="mask-type:luminance" maskUnits="userSpaceOnUse" x="94" y="0" width="18" height="18">
<path d="M111.495 3.56712L107.573 0.826053C107.07 0.470729 106.42 0.470729 105.916 0.826053L103.358 2.60267L103.316 2.57729H103.295L100.757 0.800672C100.254 0.445349 99.6038 0.445349 99.1004 0.800672L95.1786 3.54174C94.843 3.77016 94.6543 4.20162 94.6543 4.65847V9.86142C94.6543 10.7497 95.0528 11.5619 95.6819 11.9934L103.316 17.2978L110.971 11.9934C111.6 11.5619 111.998 10.7243 111.998 9.83604V4.65847C112.019 4.20162 111.831 3.79554 111.495 3.56712Z" fill="white"/>
</mask>
<g mask="url(#mask0_6_216)">
<path d="M100.281 17.6822L93.8843 13.5706L93.6956 4.7383L99.8824 0.0175781L106.279 4.12918L106.468 12.9615L100.281 17.6822Z" fill="#8957A3"/>
<path d="M108.328 17.2721L101.952 13.1859L101.743 4.35354L107.95 -0.367188L114.347 3.74441L114.536 12.5514L108.328 17.2721Z" fill="#7662AB"/>
<path d="M104.322 20.2672L97.9467 16.181L97.7369 7.34865L103.945 2.62793L110.341 6.73953L110.53 15.5465L104.322 20.2672Z" fill="#B261A6"/>
<path opacity="0.36" d="M114.535 12.5511L104.322 20.2667L104.133 11.4597L114.347 3.74414L114.535 12.5511Z" fill="#9B1C1F"/>
<path d="M93.8151 13.5667L104.322 20.2671L104.133 11.4601L93.6053 4.75977L93.8151 13.5667Z" fill="#E077A8"/>
</g>
</svg>
